<?xml version="1.0" encoding="UTF-8"?>
<svg width="200" height="50" viewBox="0 0 200 50" fill="none" xmlns="http://www.w3.org/2000/svg">
<path fill-rule="evenodd" clip-rule="evenodd" d="M68.1483 33.4257C67.2224 32.9628 66.4817 32.3146 65.9261 31.5739C65.3705 30.8331 65.0928 29.9072 65.0928 28.9813C65.0928 27.4998 65.7409 26.2961 66.9446 25.2776C68.1483 24.3517 69.815 23.7035 71.852 23.4257L77.2224 22.685V21.4813C77.2224 20.2776 76.852 19.2591 76.1113 18.6109C75.3705 17.9628 74.1668 17.5924 72.5928 17.5924C71.3891 17.5924 70.4631 17.7776 69.7224 18.2405C68.9817 18.7035 68.5187 19.2591 68.3335 19.9072C68.2409 20.185 68.1483 20.3702 68.0557 20.4628C67.9631 20.5554 67.778 20.6479 67.5928 20.6479H67.1298C66.9446 20.6479 66.7594 20.5554 66.5743 20.4628C66.3891 20.2776 66.3891 20.185 66.3891 19.9072C66.3891 19.4442 66.5743 18.7961 67.0372 18.1479C67.5002 17.4998 68.2409 16.8517 69.1668 16.3887C70.0928 15.9257 71.2965 15.6479 72.6854 15.6479C75.0928 15.6479 76.852 16.2035 77.8705 17.4072C78.8891 18.6109 79.4446 19.9998 79.4446 21.6665V33.0554C79.4446 33.2405 79.352 33.4257 79.2594 33.6109C79.1668 33.7035 78.9817 33.7961 78.7039 33.7961H78.1483C77.9631 33.7961 77.778 33.7035 77.5928 33.6109C77.5002 33.5183 77.4076 33.3331 77.4076 33.0554V31.4813C76.6668 32.222 75.9261 32.8702 75.0002 33.3331C74.0743 33.8887 72.778 34.0739 71.2039 34.0739C70.0928 34.1665 69.0743 33.8887 68.1483 33.4257ZM75.6483 30.5554C76.7594 29.4442 77.2224 27.8702 77.2224 25.8331V24.6294L72.8705 25.2776C71.0187 25.5554 69.6298 25.9257 68.6113 26.5739C67.6854 27.222 67.2224 27.9628 67.2224 28.8887C67.2224 29.9072 67.6854 30.7405 68.5187 31.2961C69.352 31.8517 70.3706 32.1294 71.5743 32.1294C73.1483 32.1294 74.5372 31.6665 75.6483 30.5554Z" fill="black"/>
<path fill-rule="evenodd" clip-rule="evenodd" d="M88.8889 32.9632L82.5926 17.1298L82.5 16.7595C82.5 16.5743 82.5926 16.3891 82.6852 16.2965C82.7778 16.2039 82.963 16.1113 83.1482 16.1113H83.8889C84.0741 16.1113 84.2593 16.2039 84.3519 16.2965C84.4444 16.3891 84.537 16.4817 84.6296 16.6669L90.3704 31.3891L96.1111 16.6669C96.1111 16.5743 96.2037 16.4817 96.3889 16.2965C96.4815 16.2039 96.6667 16.1113 96.8518 16.1113H97.5926C97.7778 16.1113 97.963 16.2039 98.0556 16.2965C98.1481 16.3891 98.2407 16.5743 98.2407 16.7595L98.1481 17.1298L91.8518 32.9632C91.6667 33.5187 91.2037 33.7965 90.5556 33.7965H90C89.537 33.7965 89.0741 33.5187 88.8889 32.9632Z" fill="black"/>
<path fill-rule="evenodd" clip-rule="evenodd" d="M101.852 12.222C101.759 12.1294 101.667 11.9442 101.667 11.6664V10.3701C101.667 10.185 101.759 9.99977 101.852 9.81458C101.944 9.6294 102.129 9.62939 102.407 9.62939H103.704C103.889 9.62939 104.074 9.72199 104.259 9.81458C104.444 9.99977 104.444 10.185 104.444 10.3701V11.6664C104.444 11.8516 104.352 12.0368 104.259 12.222C104.074 12.3146 103.889 12.4072 103.704 12.4072H102.407C102.129 12.4072 101.944 12.4072 101.852 12.222ZM102.222 33.6109C102.129 33.5183 102.037 33.3331 102.037 33.0553V16.8516C102.037 16.6664 102.129 16.4812 102.222 16.2961C102.315 16.2035 102.5 16.1109 102.778 16.1109H103.333C103.518 16.1109 103.704 16.2035 103.889 16.2961C103.981 16.3887 104.074 16.5738 104.074 16.8516V33.0553C104.074 33.2405 103.981 33.4257 103.889 33.6109C103.796 33.7035 103.611 33.7961 103.333 33.7961H102.778C102.5 33.7961 102.315 33.7035 102.222 33.6109Z" fill="black"/>
<path fill-rule="evenodd" clip-rule="evenodd" d="M111.018 33.4257C110.093 32.9628 109.352 32.3146 108.796 31.5739C108.241 30.8331 107.963 29.9072 107.963 28.9813C107.963 27.4998 108.611 26.2961 109.815 25.2776C111.018 24.3517 112.685 23.7035 114.722 23.4257L120.093 22.685V21.4813C120.093 20.2776 119.722 19.2591 118.981 18.6109C118.241 17.9628 117.037 17.5924 115.463 17.5924C114.259 17.5924 113.333 17.7776 112.593 18.2405C111.852 18.7035 111.389 19.2591 111.204 19.9072C111.111 20.185 111.018 20.3702 110.926 20.4628C110.833 20.5554 110.648 20.6479 110.463 20.6479H110C109.815 20.6479 109.63 20.5554 109.444 20.4628C109.259 20.2776 109.259 20.185 109.259 19.9072C109.259 19.4442 109.444 18.7961 109.907 18.1479C110.37 17.4998 111.111 16.8517 112.037 16.3887C112.963 15.9257 114.167 15.6479 115.555 15.6479C117.963 15.6479 119.722 16.2035 120.741 17.4072C121.759 18.6109 122.315 19.9998 122.315 21.6665V33.0554C122.315 33.2405 122.222 33.4257 122.13 33.6109C122.037 33.7035 121.852 33.7961 121.574 33.7961H121.018C120.833 33.7961 120.648 33.7035 120.463 33.6109C120.37 33.5183 120.278 33.3331 120.278 33.0554V31.4813C119.815 32.222 119.074 32.8702 118.055 33.4257C117.13 33.9813 115.833 34.1665 114.259 34.1665C112.963 34.1665 111.944 33.8887 111.018 33.4257ZM118.426 30.5554C119.537 29.4442 120 27.8702 120 25.8331V24.6294L115.648 25.2776C113.796 25.5554 112.407 25.9257 111.389 26.5739C110.463 27.222 110 27.9628 110 28.8887C110 29.9072 110.463 30.7405 111.296 31.2961C112.13 31.8517 113.148 32.1294 114.352 32.1294C116.018 32.1294 117.407 31.6665 118.426 30.5554Z" fill="black"/>
<path fill-rule="evenodd" clip-rule="evenodd" d="M129.074 33.4259C128.056 32.9629 127.315 32.3148 126.759 31.7592C126.204 31.1111 126.019 30.6481 126.019 30.1852C126.019 30 126.111 29.8148 126.296 29.7222C126.482 29.6296 126.667 29.537 126.852 29.537H127.407C127.593 29.537 127.685 29.537 127.778 29.6296C127.87 29.7222 127.963 29.8148 128.148 30C128.611 30.7407 129.259 31.2963 130 31.6666C130.741 32.037 131.667 32.2222 132.963 32.2222C134.352 32.2222 135.463 31.9444 136.389 31.3889C137.222 30.8333 137.685 30.0926 137.685 29.0741C137.685 28.4259 137.5 27.9629 137.13 27.5926C136.759 27.2222 136.204 26.8518 135.463 26.5741C134.722 26.2963 133.519 25.9259 131.944 25.6481C129.907 25.1852 128.519 24.537 127.778 23.7963C127.037 22.9629 126.667 21.9444 126.667 20.7407C126.667 19.9074 126.944 19.0741 127.407 18.3333C127.87 17.5926 128.611 16.9444 129.444 16.4815C130.37 16.0185 131.482 15.7407 132.778 15.7407C134.167 15.7407 135.278 16.0185 136.204 16.4815C137.13 16.9444 137.87 17.5 138.333 18.0555C138.796 18.7037 139.074 19.1666 139.074 19.537C139.074 19.7222 138.982 19.9074 138.889 20C138.704 20.0926 138.611 20.1852 138.333 20.1852H137.778C137.5 20.1852 137.222 20 137.037 19.7222C136.574 19.0741 136.111 18.5185 135.463 18.1481C134.907 17.7778 133.982 17.5926 132.778 17.5926C131.482 17.5926 130.463 17.8704 129.815 18.4259C129.167 18.9815 128.796 19.7222 128.796 20.5555C128.796 21.1111 128.889 21.5741 129.167 21.9444C129.444 22.3148 129.907 22.6852 130.741 22.9629C131.482 23.2407 132.593 23.6111 133.982 23.8889C136.111 24.3518 137.593 25 138.426 25.8333C139.259 26.6666 139.722 27.6852 139.722 28.9815C139.722 29.9074 139.444 30.7407 138.982 31.5741C138.426 32.3148 137.685 32.9629 136.667 33.4259C135.648 33.8889 134.444 34.0741 132.963 34.0741C131.296 34.1666 130.093 33.8889 129.074 33.4259Z" fill="black"/>
<path fill-rule="evenodd" clip-rule="evenodd" d="M145.37 33.4257C144.445 32.9628 143.704 32.3146 143.148 31.5739C142.593 30.8331 142.315 29.9072 142.315 28.9813C142.315 27.4998 142.963 26.2961 144.167 25.2776C145.37 24.3517 147.037 23.7035 149.074 23.4257L154.445 22.685V21.4813C154.445 20.2776 154.074 19.2591 153.333 18.6109C152.593 17.9628 151.389 17.5924 149.815 17.5924C148.611 17.5924 147.685 17.7776 146.945 18.2405C146.204 18.7035 145.741 19.2591 145.556 19.9072C145.463 20.185 145.37 20.3702 145.278 20.4628C145.185 20.5554 145 20.6479 144.815 20.6479H144.352C144.167 20.6479 143.982 20.5554 143.796 20.4628C143.611 20.2776 143.611 20.185 143.611 19.9072C143.611 19.4442 143.796 18.7961 144.259 18.1479C144.722 17.4998 145.463 16.8517 146.389 16.3887C147.315 15.9257 148.519 15.6479 149.908 15.6479C152.315 15.6479 154.074 16.2035 155.093 17.4072C156.111 18.6109 156.667 19.9998 156.667 21.6665V33.0554C156.667 33.2405 156.574 33.4257 156.482 33.6109C156.389 33.7035 156.204 33.7961 155.926 33.7961H155.371C155.185 33.7961 155 33.7035 154.815 33.6109C154.722 33.5183 154.63 33.3331 154.63 33.0554V31.4813C154.167 32.222 153.426 32.8702 152.408 33.4257C151.482 33.9813 150.185 34.1665 148.611 34.1665C147.315 34.1665 146.296 33.8887 145.37 33.4257ZM152.778 30.5554C153.889 29.4442 154.352 27.8702 154.352 25.8331V24.6294L150 25.2776C148.148 25.5554 146.759 25.9257 145.741 26.5739C144.815 27.222 144.352 27.9628 144.352 28.8887C144.352 29.9072 144.815 30.7405 145.648 31.2961C146.482 31.8517 147.5 32.1294 148.704 32.1294C150.371 32.1294 151.759 31.6665 152.778 30.5554Z" fill="black"/>
<path fill-rule="evenodd" clip-rule="evenodd" d="M161.759 33.6109C161.667 33.5183 161.574 33.3331 161.574 33.0553V10.3701C161.574 10.185 161.667 9.99977 161.759 9.81458C161.852 9.72199 162.037 9.62939 162.315 9.62939H162.871C163.056 9.62939 163.241 9.72199 163.426 9.81458C163.519 9.90717 163.611 10.0924 163.611 10.3701V33.0553C163.611 33.2405 163.519 33.4257 163.426 33.6109C163.333 33.7035 163.148 33.7961 162.871 33.7961H162.315C162.13 33.7961 161.945 33.7035 161.759 33.6109Z" fill="black"/>
<path fill-rule="evenodd" clip-rule="evenodd" d="M170.278 32.037C168.982 30.6481 168.241 28.7037 168.056 26.2963V24.9074V23.5185C168.241 21.1111 168.982 19.2592 170.278 17.8704C171.574 16.4815 173.333 15.7407 175.556 15.7407C177.963 15.7407 179.722 16.4815 181.111 18.0555C182.408 19.6296 183.148 21.7592 183.148 24.537V25C183.148 25.1852 183.056 25.3704 182.963 25.5555C182.778 25.6481 182.593 25.7407 182.408 25.7407H170.278V26.1111C170.278 27.2222 170.556 28.1481 171.019 29.0741C171.482 30 172.037 30.7407 172.87 31.2963C173.704 31.8518 174.63 32.1296 175.648 32.1296C176.852 32.1296 177.87 31.8518 178.704 31.3889C179.445 30.9259 180.093 30.3704 180.37 29.9074C180.556 29.6296 180.741 29.4444 180.833 29.3518C180.926 29.2592 181.111 29.2592 181.389 29.2592H181.945C182.13 29.2592 182.315 29.3518 182.5 29.4444C182.593 29.537 182.685 29.7222 182.685 29.9074C182.685 30.3704 182.408 30.9259 181.759 31.6666C181.111 32.3148 180.278 32.9629 179.259 33.4259C178.148 33.8889 176.945 34.1667 175.648 34.1667C173.333 34.1667 171.574 33.4259 170.278 32.037ZM180.926 23.8889V23.7963C180.926 22.037 180.463 20.6481 179.445 19.4444C178.426 18.3333 177.13 17.7778 175.463 17.7778C173.796 17.7778 172.5 18.3333 171.482 19.4444C170.556 20.5555 170 22.037 170 23.7963V23.8889H180.926Z" fill="black"/>
<path fill-rule="evenodd" clip-rule="evenodd" d="M189.074 33.4259C188.056 32.9629 187.315 32.3148 186.759 31.7592C186.204 31.1111 186.019 30.6481 186.019 30.1852C186.019 30 186.111 29.8148 186.296 29.7222C186.482 29.6296 186.667 29.537 186.852 29.537H187.407C187.593 29.537 187.685 29.537 187.778 29.6296C187.87 29.7222 187.963 29.8148 188.148 30C188.611 30.7407 189.259 31.2963 190 31.6666C190.741 32.037 191.667 32.2222 192.963 32.2222C194.352 32.2222 195.463 31.9444 196.389 31.3889C197.222 30.8333 197.685 30.0926 197.685 29.0741C197.685 28.4259 197.5 27.9629 197.13 27.5926C196.759 27.2222 196.204 26.8518 195.463 26.5741C194.722 26.2963 193.519 25.9259 191.944 25.6481C189.907 25.1852 188.519 24.537 187.778 23.7963C187.037 22.9629 186.667 21.9444 186.667 20.7407C186.667 19.9074 186.944 19.0741 187.407 18.3333C187.87 17.5926 188.611 16.9444 189.444 16.4815C190.37 16.0185 191.482 15.7407 192.778 15.7407C194.167 15.7407 195.278 16.0185 196.204 16.4815C197.13 16.9444 197.87 17.5 198.333 18.0555C198.796 18.7037 199.074 19.1666 199.074 19.537C199.074 19.7222 198.982 19.9074 198.889 20C198.704 20.0926 198.611 20.1852 198.333 20.1852H197.778C197.5 20.1852 197.222 20 197.037 19.7222C196.574 19.0741 196.111 18.5185 195.463 18.1481C194.907 17.7778 193.982 17.5926 192.778 17.5926C191.482 17.5926 190.463 17.8704 189.815 18.4259C189.167 18.9815 188.796 19.7222 188.796 20.5555C188.796 21.1111 188.889 21.5741 189.167 21.9444C189.444 22.3148 189.907 22.6852 190.741 22.9629C191.482 23.2407 192.593 23.6111 193.982 23.8889C196.111 24.3518 197.593 25 198.426 25.8333C199.259 26.6666 199.722 27.6852 199.722 28.9815C199.722 29.9074 199.444 30.7407 198.982 31.5741C198.426 32.3148 197.685 32.9629 196.667 33.4259C195.648 33.8889 194.444 34.0741 192.963 34.0741C191.296 34.1666 190.093 33.8889 189.074 33.4259Z" fill="black"/>
<path fill-rule="evenodd" clip-rule="evenodd" d="M39.8148 50H10.1852C4.53704 50 0 45.463 0 39.8148V10.1852C0 4.53704 4.53704 0 10.1852 0H39.8148C45.463 0 50 4.53704 50 10.1852V39.8148C50 45.463 45.463 50 39.8148 50Z" fill="#2196F3"/>
<path fill-rule="evenodd" clip-rule="evenodd" d="M46.0188 15.9262C46.6669 15.9262 47.1299 15.4632 47.1299 14.815V10.8336C47.1299 6.48172 43.6113 2.87061 39.1669 2.87061H10.8336C6.48172 2.87061 2.87061 6.38912 2.87061 10.8336V14.815C2.87061 15.4632 3.33357 15.9262 3.98172 15.9262C7.40764 15.9262 10.1854 18.7039 10.1854 22.1299V27.8706C10.1854 31.2965 7.40764 34.0743 3.98172 34.0743C3.33357 34.0743 2.87061 34.5373 2.87061 35.1854V39.1669C2.87061 43.5188 6.38912 47.1299 10.8336 47.1299H39.2595C43.6113 47.1299 47.2225 43.6113 47.2225 39.1669V35.1854C47.2225 34.5373 46.7595 34.0743 46.1113 34.0743C42.6854 34.0743 39.8151 31.2965 39.8151 27.778V22.1299C39.8151 18.7039 42.5928 15.9262 46.0188 15.9262Z" fill="white"/>
<path fill-rule="evenodd" clip-rule="evenodd" d="M26.3891 34.0742H23.8891C20.4631 34.0742 17.5928 31.2965 17.5928 27.7779V22.1298C17.5928 18.7039 20.3706 15.8335 23.8891 15.8335H26.3891C29.815 15.8335 32.6854 18.6113 32.6854 22.1298V27.7779C32.5928 31.2965 29.815 34.0742 26.3891 34.0742Z" fill="#2196F3"/>
<path fill-rule="evenodd" clip-rule="evenodd" d="M25.2777 32.3149H24.2591C21.574 32.3149 19.4443 30.1853 19.4443 27.5001V25.2778C19.4443 24.9075 19.8147 24.5371 20.1851 24.5371C20.5554 24.5371 20.9258 24.9075 20.9258 25.2778V27.5001C20.9258 29.3519 22.4073 30.8334 24.2591 30.8334H25.2777C25.648 30.8334 26.0184 31.2038 26.0184 31.5741C26.0184 31.9445 25.7406 32.3149 25.2777 32.3149Z" fill="white"/>
<path fill-rule="evenodd" clip-rule="evenodd" d="M26.1109 11.6665H24.0739C18.0554 11.6665 13.1479 16.5739 13.1479 22.5924V32.1295C13.1479 38.148 18.0554 43.0554 24.0739 43.0554H26.1109C32.1294 43.0554 37.0368 38.148 37.0368 32.1295V22.5924C37.1294 16.5739 32.222 11.6665 26.1109 11.6665ZM35.6479 32.1295C35.6479 37.4072 31.3887 41.5739 26.2035 41.5739H24.0739C18.7961 41.5739 14.6294 37.3147 14.6294 32.1295V22.5924C14.6294 17.3147 18.8887 13.148 24.0739 13.148H26.1109C31.3887 13.148 35.5554 17.4072 35.5554 22.5924V32.1295H35.6479Z" fill="#2196F3"/>
</svg>
