<?xml version="1.0" encoding="utf-8"?>
<!-- Generator: Adobe Illustrator 21.1.0, SVG Export Plug-In . SVG Version: 6.00 Build 0)  -->
<svg version="1.1" id="Слой_1" xmlns="http://www.w3.org/2000/svg" xmlns:xlink="http://www.w3.org/1999/xlink" x="0px" y="0px"
	 viewBox="0 0 325.4 53.6" enable-background="new 0 0 325.4 53.6" xml:space="preserve">
<path fill-rule="evenodd" clip-rule="evenodd" d="M319,25.9L319,25.9v1.2V30c0,0.5-0.4,0.9-1.3,0.9h-2.4h-0.3h-0.3h-1h-1.6h-2.4
	c-0.9,0-1.3-0.4-1.3-0.9v-2.9v-1.2v-6.3c0-0.5,0.4-0.9,1.3-0.9h2.4h1.6h1h0.3h0.3h2.4c0.9,0,1.3,0.4,1.3,0.9V25.9z M319,13.9h-2.7
	h-1.4h-0.3h-1h-2.7h-2.7c-1.8,0-6.3,0.7-6.4,4.7v0.7v6.5v1.2v3.1V31c0.1,4,4.6,4.7,6.4,4.7h2.7h2.7h1h0.3h1.4h2.7
	c1.8,0,6.3-0.7,6.4-4.7v-0.7v-3.1v-1.2v-6.5v-0.7C325.3,14.6,320.8,13.9,319,13.9z"/>
<path fill-rule="evenodd" clip-rule="evenodd" d="M256.3,30.1L256.3,30.1c0,0.5-0.5,0.9-1.3,0.9h-2.8h-2h-5.8v-3.9l7.8,0h2.8
	c0.9,0,1.3,0.4,1.3,0.9V30.1z M244.3,19.6L244.3,19.6c0-0.5,0.5-0.9,1.3-0.9h2.8h1.5h0.2h1.6h2.8c0.9,0,1.3,0.4,1.3,0.9v2.1
	c0,0.5-0.5,0.9-1.3,0.9h-2.8h-1.6h-5.8V19.6z M260.9,24.7c0.9-0.8,1.4-1.7,1.4-2.7h0v-2.5h0l0-0.8c-0.1-4-4.6-4.7-6.4-4.7h-2.7h-2.4
	h-0.7h-0.2h-3h-2.7c-1.8,0-6.3,0.7-6.4,4.7v0.6V23v3.7v9h4.6h1.8h5.8h3.5h2.7c1.8,0,6.3-0.7,6.4-4.7l0-0.9h0v-2.4h0
	C262.7,26.6,262,25.5,260.9,24.7z"/>
<path fill-rule="evenodd" clip-rule="evenodd" d="M227.8,24.7L227.8,24.7h-5.4H217v-5.4c0.1-0.3,0.6-0.7,1.3-0.7h2.2v0h1.9h1.7h2.4
	c0.9,0,1.3,0.4,1.3,0.9V24.7z M227.8,13.9h-2.7h-2.5h-0.2H217c-1.8,0-6.3,0.7-6.4,4.7h0v17.1h6.4v-6.3h5.4h5.4v6.3h6.4V19.4v-0.7
	C234.1,14.6,229.6,13.9,227.8,13.9z"/>
<path fill-rule="evenodd" clip-rule="evenodd" d="M292,13.9h-2.7h-11.6h-5.6c-1.8,0-6.3,0.7-6.4,4.7v17.1h6.4V19.3
	c0.1-0.3,0.6-0.7,1.3-0.7h2.2v0h3.3v17h6.4v-17h5.4c0.9,0,1.3,0.4,1.3,0.9v16.1h6.4V19.4v-0.7C298.3,14.6,293.8,13.9,292,13.9"/>
<path fill="#00953C" d="M76.4,18.7l0,0.7h0v16.3h6.4V19.6c0-0.5,0.5-0.9,1.3-0.9h12.7v-4.7h-14C81,13.9,76.4,14.6,76.4,18.7"/>
<polygon fill="#00953C" points="116.5,13.9 116.3,13.9 105.9,27.6 105.9,13.9 99.5,13.9 99.5,35.7 99.8,35.7 105.9,35.7 106.2,35.7 
	116.5,22 116.5,35.7 122.9,35.7 122.9,13.9 122.6,13.9 "/>
<path fill="#00953C" d="M161.4,18.7h2.8h12.2l0-4.7h-13.7h-2.7c-1.8,0-6.3,0.7-6.4,4.7l0,0.9h0V30h0l0,0.9c0.1,4,4.6,4.7,6.4,4.7
	h2.7h13.7l0-4.7h-12.2h-2.8c-0.9,0-1.3-0.4-1.3-0.9v-2.9H174l0-4.7h-13.9v-2.9C160.1,19,160.6,18.7,161.4,18.7"/>
<path fill="#00953C" d="M197.7,23.8L197.7,23.8c0,0.5-0.5,0.9-1.3,0.9h-0.2h-2.6h-1.6h-0.2h-1.8h-3.8v-5.1c0-0.5,0.5-0.9,1.3-0.9
	h2.8h1.5h0.2h1.6h2.8c0.9,0,1.3,0.4,1.3,0.9V23.8z M197.7,13.9h-2.7h-2.4h-0.7h-0.2h-3h-2.7c-1.8,0-6.3,0.7-6.4,4.7v0.7v0.2v16.1
	h6.4v-6.3h5.6h0.2h3.1h1.1h1.6c1.8,0,6.3-0.7,6.4-4.7v-0.6v-5.5C204.1,14.6,199.5,13.9,197.7,13.9z"/>
<path fill="#00953C" d="M144,13.9h-2.7h-2.5h-5.6c-1.8,0-6.3,0.7-6.4,4.7h0v17.1h6.4V19.3c0.1-0.3,0.6-0.7,1.3-0.7h2.2v0h3.6h2.4
	c0.9,0,1.3,0.4,1.3,0.9v16.1h6.4V19.4h0l0-0.7C150.3,14.6,145.8,13.9,144,13.9"/>
<path fill-rule="evenodd" clip-rule="evenodd" fill="#00953C" d="M46.9,13.7c-4.8,0-8.1,0-13.4,0c-9.5,0-15.3,3.2-19.1,10.7
	L7.5,38.1c-1.9-3.3-3.1-7.2-3.1-11.3c0-12.3,10-22.3,22.3-22.3c6.2,0,11.9,2.6,15.9,6.7h5.8C43.7,4.4,35.7,0,26.8,0
	C12,0,0,12,0,26.8C0,36.7,5.4,45.3,13.4,50l12.9-25.5c3.6-6.5,10.8-6.6,14.5-6.7h28.4l1.7-3.4l0.3-0.6H46.9z"/>
<path fill-rule="evenodd" clip-rule="evenodd" d="M51.1,21.3c-3.3,0-5.7,0-9.3,0c-6.2,0-10.2,2.2-12.8,7.3l-4.9,9.6h8.1
	c0.7-1.4,1.4-2.8,2.2-4.2h13.5c-3,8.8-11.3,15.1-21.1,15.1c-2.6,0-5-0.4-7.3-1.2l-2,4c2.9,1.1,6.1,1.7,9.3,1.7
	c14.8,0,26.8-12,26.8-26.8c0-0.4,0-0.7,0-1h-4.5c0,0.3,0,0.7,0,1c0,1.1-0.1,2.1-0.2,3.1H36.5l0.1-0.1c2.4-4.4,5.1-4.5,8.9-4.6h20
	l0.7-1.4l1.3-2.5H51.1z"/>
<path d="M320.3,47.4L320.3,47.4V49h1.3c0.5,0,0.8,0,1,0c0.2,0,0.4-0.1,0.5-0.2c0.1-0.1,0.2-0.3,0.2-0.5c0-0.2,0-0.3-0.2-0.5
	c-0.1-0.1-0.2-0.2-0.4-0.3c-0.2-0.1-0.6-0.1-1.2-0.1H320.3z M320.3,44.9L320.3,44.9v1.4h0.9c0.5,0,0.9,0,1,0c0.2,0,0.4-0.1,0.6-0.2
	c0.1-0.1,0.2-0.3,0.2-0.5c0-0.2-0.1-0.3-0.2-0.5c-0.1-0.1-0.3-0.2-0.5-0.2c-0.1,0-0.5,0-1.2,0H320.3z M318.8,43.9L318.8,43.9h2.8
	c0.5,0,1,0,1.2,0.1c0.3,0,0.5,0.1,0.7,0.3c0.2,0.1,0.4,0.3,0.5,0.5c0.1,0.2,0.2,0.4,0.2,0.7c0,0.3-0.1,0.5-0.3,0.8
	c-0.2,0.2-0.4,0.4-0.7,0.5c0.4,0.1,0.7,0.3,1,0.6c0.2,0.3,0.3,0.6,0.3,0.9c0,0.3-0.1,0.5-0.2,0.8c-0.1,0.3-0.3,0.5-0.6,0.6
	c-0.3,0.2-0.6,0.3-0.9,0.3c-0.2,0-0.8,0-1.7,0h-2.4V43.9z M311.4,47L311.4,47c0,0.7,0.2,1.2,0.5,1.6c0.4,0.4,0.8,0.5,1.4,0.5
	c0.6,0,1-0.2,1.4-0.5c0.4-0.4,0.5-0.9,0.5-1.6c0-0.7-0.2-1.2-0.5-1.6c-0.3-0.3-0.8-0.5-1.4-0.5c-0.6,0-1,0.2-1.4,0.5
	C311.6,45.7,311.4,46.3,311.4,47z M310,47L310,47c0-0.6,0.1-1.1,0.3-1.6c0.2-0.3,0.4-0.6,0.6-0.8c0.3-0.2,0.6-0.4,0.9-0.5
	c0.4-0.2,0.9-0.2,1.5-0.2c1,0,1.8,0.3,2.5,0.8c0.6,0.6,0.9,1.3,0.9,2.3c0,1-0.3,1.8-0.9,2.3c-0.6,0.6-1.4,0.8-2.4,0.8
	c-1,0-1.9-0.3-2.5-0.8C310.3,48.7,310,48,310,47z M306.9,47.8L306.9,47.8l1.4,0.4c-0.2,0.7-0.6,1.2-1,1.5c-0.5,0.3-1.1,0.5-1.8,0.5
	c-0.9,0-1.7-0.3-2.3-0.8c-0.6-0.6-0.9-1.3-0.9-2.3c0-1,0.3-1.8,0.9-2.4c0.6-0.6,1.4-0.8,2.4-0.8c0.8,0,1.5,0.2,2.1,0.7
	c0.3,0.3,0.6,0.6,0.7,1.1l-1.4,0.3c-0.1-0.3-0.3-0.6-0.5-0.7c-0.3-0.2-0.6-0.3-1-0.3c-0.5,0-0.9,0.2-1.2,0.5
	c-0.3,0.3-0.5,0.8-0.5,1.6c0,0.8,0.2,1.3,0.5,1.6c0.3,0.3,0.7,0.5,1.2,0.5c0.4,0,0.7-0.1,1-0.3C306.6,48.6,306.8,48.2,306.9,47.8z
	 M294.5,43.9L294.5,43.9h1.3V48l2.8-4.1h1.4V50h-1.3v-4l-2.8,4h-1.4V43.9z M287.9,47.4L287.9,47.4V49h1.3c0.5,0,0.8,0,1,0
	c0.2,0,0.4-0.1,0.5-0.2c0.1-0.1,0.2-0.3,0.2-0.5c0-0.2-0.1-0.3-0.2-0.5c-0.1-0.1-0.2-0.2-0.4-0.3c-0.2-0.1-0.6-0.1-1.2-0.1H287.9z
	 M287.9,44.9L287.9,44.9v1.4h0.9c0.5,0,0.9,0,1,0c0.2,0,0.4-0.1,0.6-0.2c0.1-0.1,0.2-0.3,0.2-0.5c0-0.2-0.1-0.3-0.2-0.5
	c-0.1-0.1-0.3-0.2-0.5-0.2c-0.1,0-0.5,0-1.2,0H287.9z M286.5,43.9L286.5,43.9h2.8c0.5,0,1,0,1.2,0.1c0.3,0,0.5,0.1,0.7,0.3
	c0.2,0.1,0.4,0.3,0.5,0.5c0.1,0.2,0.2,0.4,0.2,0.7c0,0.3-0.1,0.5-0.3,0.8c-0.2,0.2-0.4,0.4-0.7,0.5c0.4,0.1,0.7,0.3,1,0.6
	c0.2,0.3,0.3,0.6,0.3,0.9c0,0.3-0.1,0.5-0.2,0.8c-0.1,0.3-0.3,0.5-0.6,0.6c-0.3,0.2-0.6,0.3-0.9,0.3c-0.2,0-0.8,0-1.7,0h-2.4V43.9z
	 M280.4,45L280.4,45v1.7h0.8c0.6,0,0.9,0,1.1-0.1c0.2-0.1,0.3-0.2,0.4-0.3c0.1-0.1,0.2-0.3,0.2-0.5c0-0.2-0.1-0.4-0.2-0.5
	c-0.1-0.1-0.3-0.2-0.6-0.3c-0.2,0-0.5,0-1,0H280.4z M279,50L279,50v-6.1h2.2c0.9,0,1.4,0,1.7,0.1c0.4,0.1,0.7,0.3,1,0.6
	c0.3,0.3,0.4,0.7,0.4,1.2c0,0.4-0.1,0.7-0.2,0.9c-0.2,0.3-0.4,0.5-0.6,0.6c-0.2,0.1-0.5,0.2-0.7,0.3c-0.3,0.1-0.8,0.1-1.5,0.1h-0.9
	V50H279z M271.5,50L271.5,50v-6.1h5.1v1h-3.7v1.4h3.5v1h-3.5V49h3.9v1H271.5z M267.9,47.8L267.9,47.8l1.4,0.4
	c-0.2,0.7-0.6,1.2-1,1.5c-0.5,0.3-1.1,0.5-1.8,0.5c-0.9,0-1.7-0.3-2.3-0.8c-0.6-0.6-0.9-1.3-0.9-2.3c0-1,0.3-1.8,0.9-2.4
	c0.6-0.6,1.4-0.8,2.4-0.8c0.8,0,1.5,0.2,2.1,0.7c0.3,0.3,0.6,0.6,0.7,1.1l-1.4,0.3c-0.1-0.3-0.3-0.6-0.5-0.7
	c-0.3-0.2-0.6-0.3-0.9-0.3c-0.5,0-0.9,0.2-1.3,0.5c-0.3,0.3-0.5,0.8-0.5,1.6c0,0.8,0.2,1.3,0.5,1.6c0.3,0.3,0.7,0.5,1.2,0.5
	c0.4,0,0.7-0.1,1-0.3C267.6,48.6,267.8,48.2,267.9,47.8z M256,47L256,47c0,0.7,0.2,1.2,0.5,1.6c0.4,0.4,0.8,0.5,1.4,0.5
	c0.6,0,1-0.2,1.4-0.5c0.4-0.4,0.5-0.9,0.5-1.6c0-0.7-0.2-1.2-0.5-1.6c-0.4-0.3-0.8-0.5-1.4-0.5c-0.6,0-1,0.2-1.4,0.5
	C256.2,45.7,256,46.3,256,47z M254.6,47L254.6,47c0-0.6,0.1-1.1,0.3-1.6c0.2-0.3,0.4-0.6,0.6-0.8c0.3-0.2,0.6-0.4,0.9-0.5
	c0.4-0.2,0.9-0.2,1.5-0.2c1,0,1.8,0.3,2.5,0.8c0.6,0.6,0.9,1.3,0.9,2.3c0,1-0.3,1.8-0.9,2.3c-0.6,0.6-1.4,0.8-2.4,0.8
	c-1,0-1.9-0.3-2.5-0.8C254.9,48.7,254.6,48,254.6,47z M249.7,50L249.7,50V45h-2.1v-1h5.5v1h-2.1V50H249.7z M241.9,47.4L241.9,47.4
	V49h1.3c0.5,0,0.8,0,1,0c0.2,0,0.4-0.1,0.5-0.2c0.1-0.1,0.2-0.3,0.2-0.5c0-0.2,0-0.3-0.2-0.5c-0.1-0.1-0.2-0.2-0.4-0.3
	c-0.2-0.1-0.6-0.1-1.2-0.1H241.9z M241.9,44.9L241.9,44.9v1.4h0.9c0.5,0,0.9,0,1,0c0.2,0,0.4-0.1,0.6-0.2c0.1-0.1,0.2-0.3,0.2-0.5
	c0-0.2-0.1-0.3-0.2-0.5c-0.1-0.1-0.3-0.2-0.5-0.2c-0.1,0-0.5,0-1.2,0H241.9z M240.5,43.9L240.5,43.9h2.8c0.5,0,1,0,1.2,0.1
	c0.3,0,0.5,0.1,0.7,0.3c0.2,0.1,0.4,0.3,0.5,0.5c0.1,0.2,0.2,0.4,0.2,0.7c0,0.3-0.1,0.5-0.3,0.8c-0.2,0.2-0.4,0.4-0.7,0.5
	c0.4,0.1,0.7,0.3,1,0.6c0.2,0.3,0.3,0.6,0.3,0.9c0,0.3-0.1,0.5-0.2,0.8c-0.1,0.3-0.3,0.5-0.6,0.6c-0.3,0.2-0.6,0.3-0.9,0.3
	c-0.2,0-0.8,0-1.7,0h-2.4V43.9z M236.1,47.6L236.1,47.6l-1-2.3l-0.9,2.3H236.1z M238.7,50L238.7,50h-1.5l-0.6-1.4h-2.8l-0.6,1.4
	h-1.5l2.7-6.1h1.5L238.7,50z M219.1,43.9L219.1,43.9h1.3V48l2.8-4.1h1.4V50h-1.3v-4l-2.8,4h-1.4V43.9z M207.1,47.4L207.1,47.4V49
	h1.3c0.5,0,0.8,0,1,0c0.2,0,0.4-0.1,0.5-0.2c0.1-0.1,0.2-0.3,0.2-0.5c0-0.2,0-0.3-0.2-0.5c-0.1-0.1-0.2-0.2-0.4-0.3
	c-0.2-0.1-0.6-0.1-1.2-0.1H207.1z M207.1,44.9L207.1,44.9v1.4h0.9c0.5,0,0.9,0,1,0c0.2,0,0.4-0.1,0.6-0.2c0.1-0.1,0.2-0.3,0.2-0.5
	c0-0.2-0.1-0.3-0.2-0.5c-0.1-0.1-0.3-0.2-0.5-0.2c-0.1,0-0.5,0-1.2,0H207.1z M205.7,43.9L205.7,43.9h2.8c0.6,0,1,0,1.2,0.1
	c0.3,0,0.5,0.1,0.7,0.3c0.2,0.1,0.4,0.3,0.5,0.5c0.1,0.2,0.2,0.4,0.2,0.7c0,0.3-0.1,0.5-0.3,0.8c-0.2,0.2-0.4,0.4-0.7,0.5
	c0.4,0.1,0.7,0.3,1,0.6c0.2,0.3,0.3,0.6,0.3,0.9c0,0.3-0.1,0.5-0.2,0.8c-0.1,0.3-0.3,0.5-0.6,0.6c-0.3,0.2-0.6,0.3-0.9,0.3
	c-0.2,0-0.8,0-1.7,0h-2.4V43.9z M198.2,47L198.2,47c0,0.7,0.2,1.2,0.5,1.6c0.4,0.4,0.8,0.5,1.4,0.5c0.6,0,1-0.2,1.4-0.5
	c0.4-0.4,0.5-0.9,0.5-1.6c0-0.7-0.2-1.2-0.5-1.6c-0.4-0.3-0.8-0.5-1.4-0.5c-0.6,0-1,0.2-1.4,0.5C198.4,45.7,198.2,46.3,198.2,47z
	 M196.8,47L196.8,47c0-0.6,0.1-1.1,0.3-1.6c0.2-0.3,0.4-0.6,0.6-0.8c0.3-0.2,0.6-0.4,0.9-0.5c0.4-0.2,0.9-0.2,1.5-0.2
	c1,0,1.8,0.3,2.5,0.8c0.6,0.6,0.9,1.3,0.9,2.3c0,1-0.3,1.8-0.9,2.3c-0.6,0.6-1.4,0.8-2.4,0.8c-1,0-1.9-0.3-2.5-0.8
	C197.1,48.7,196.8,48,196.8,47z M189.1,50L189.1,50v-6.1h1.4v2.4h2.7v-2.4h1.4V50h-1.4v-2.7h-2.7V50H189.1z M181.1,43.9L181.1,43.9
	h1.3V48l2.8-4.1h1.4V50h-1.3v-4l-2.8,4h-1.4V43.9z M174.9,45.6L174.9,45.6l-1.4-0.3c0.3-1,1.1-1.5,2.5-1.5c0.8,0,1.4,0.2,1.8,0.5
	c0.4,0.3,0.6,0.7,0.6,1.1c0,0.3-0.1,0.6-0.3,0.8c-0.2,0.2-0.5,0.4-0.9,0.6c0.5,0.1,0.8,0.3,1,0.6c0.2,0.3,0.3,0.6,0.3,0.9
	c0,0.5-0.2,1-0.7,1.3c-0.4,0.3-1.1,0.5-2,0.5c-0.7,0-1.3-0.1-1.7-0.3c-0.4-0.2-0.7-0.6-0.9-1.2l1.3-0.4c0.1,0.4,0.3,0.6,0.5,0.7
	c0.2,0.1,0.5,0.2,0.8,0.2c0.4,0,0.8-0.1,1-0.3c0.2-0.2,0.3-0.4,0.3-0.6c0-0.2-0.1-0.5-0.3-0.6c-0.2-0.2-0.6-0.2-1-0.2h-0.3v-0.9h0.2
	c0.4,0,0.8-0.1,1-0.3c0.2-0.2,0.3-0.4,0.3-0.7c0-0.2-0.1-0.4-0.3-0.6c-0.2-0.2-0.5-0.2-0.8-0.2C175.5,44.8,175.1,45.1,174.9,45.6z
	 M169.6,47.6L169.6,47.6l-1-2.3l-0.9,2.3H169.6z M172.2,50L172.2,50h-1.5l-0.6-1.4h-2.8l-0.6,1.4h-1.5l2.7-6.1h1.5L172.2,50z
	 M160.1,43.9L160.1,43.9h4.7v1h-3.3V50h-1.4V43.9z M155.7,47.6L155.7,47.6l-1-2.3l-0.9,2.3H155.7z M158.2,50L158.2,50h-1.5l-0.6-1.4
	h-2.8l-0.6,1.4h-1.5l2.7-6.1h1.5L158.2,50z M142.8,50L142.8,50v-6.1h2.1l1.3,4.2l1.2-4.2h2.1V50h-1.3v-4.8l-1.4,4.8h-1.3l-1.4-4.8
	V50H142.8z M135.5,47L135.5,47c0,0.7,0.2,1.2,0.5,1.6c0.4,0.4,0.8,0.5,1.4,0.5c0.6,0,1-0.2,1.4-0.5c0.4-0.4,0.5-0.9,0.5-1.6
	c0-0.7-0.2-1.2-0.5-1.6c-0.3-0.3-0.8-0.5-1.4-0.5c-0.6,0-1,0.2-1.4,0.5C135.6,45.7,135.5,46.3,135.5,47z M134,47L134,47
	c0-0.6,0.1-1.1,0.3-1.6c0.2-0.3,0.4-0.6,0.6-0.8c0.3-0.2,0.6-0.4,0.9-0.5c0.4-0.2,0.9-0.2,1.5-0.2c1,0,1.8,0.3,2.5,0.8
	c0.6,0.6,0.9,1.3,0.9,2.3c0,1-0.3,1.8-0.9,2.3c-0.6,0.6-1.4,0.8-2.4,0.8c-1,0-1.9-0.3-2.5-0.8C134.3,48.7,134,48,134,47z M129.1,50
	L129.1,50V45h-2.1v-1h5.5v1h-2.1V50H129.1z M121.3,47.4L121.3,47.4V49h1.3c0.5,0,0.8,0,1,0c0.2,0,0.4-0.1,0.5-0.2
	c0.1-0.1,0.2-0.3,0.2-0.5c0-0.2-0.1-0.3-0.2-0.5c-0.1-0.1-0.2-0.2-0.4-0.3c-0.2-0.1-0.6-0.1-1.2-0.1H121.3z M121.3,44.9L121.3,44.9
	v1.4h0.9c0.5,0,0.9,0,1,0c0.2,0,0.4-0.1,0.6-0.2c0.1-0.1,0.2-0.3,0.2-0.5c0-0.2-0.1-0.3-0.2-0.5c-0.1-0.1-0.3-0.2-0.5-0.2
	c-0.1,0-0.5,0-1.2,0H121.3z M119.9,43.9L119.9,43.9h2.8c0.5,0,1,0,1.2,0.1c0.3,0,0.5,0.1,0.7,0.3c0.2,0.1,0.4,0.3,0.5,0.5
	c0.1,0.2,0.2,0.4,0.2,0.7c0,0.3-0.1,0.5-0.3,0.8c-0.2,0.2-0.4,0.4-0.7,0.5c0.4,0.1,0.7,0.3,1,0.6c0.2,0.3,0.3,0.6,0.3,0.9
	c0,0.3-0.1,0.5-0.2,0.8c-0.1,0.3-0.3,0.5-0.6,0.6c-0.3,0.2-0.6,0.3-0.9,0.3c-0.2,0-0.8,0-1.7,0h-2.4V43.9z M115.6,47.6L115.6,47.6
	l-1-2.3l-0.9,2.3H115.6z M118.2,50L118.2,50h-1.5l-0.6-1.4h-2.8l-0.6,1.4h-1.5l2.7-6.1h1.5L118.2,50z M99.9,49L99.9,49h1.4
	c0.4,0,0.7,0,0.9-0.1c0.2,0,0.3-0.1,0.5-0.3c0.1-0.1,0.2-0.3,0.2-0.5c0-0.3-0.1-0.5-0.3-0.6c-0.2-0.1-0.6-0.2-1.2-0.2h-1.4V49z
	 M98.5,43.9L98.5,43.9h1.4v2.4h1.9c0.9,0,1.5,0.2,1.9,0.5c0.4,0.4,0.6,0.8,0.6,1.3c0,0.4-0.1,0.8-0.4,1.1c-0.2,0.3-0.5,0.5-0.8,0.6
	c-0.3,0.1-0.8,0.2-1.3,0.2h-3.3V43.9z M93.1,50L93.1,50V45h-2.1v-1h5.5v1h-2.1V50H93.1z M84.1,50L84.1,50v-6.1h5.1v1h-3.7v1.4h3.5v1
	h-3.5V49h3.9v1H84.1z M80.5,47.8l1.4,0.4c-0.2,0.7-0.6,1.2-1,1.5c-0.5,0.3-1.1,0.5-1.8,0.5c-0.9,0-1.7-0.3-2.3-0.8
	c-0.6-0.6-0.9-1.3-0.9-2.3c0-1,0.3-1.8,0.9-2.4c0.6-0.6,1.4-0.8,2.4-0.8c0.8,0,1.5,0.2,2.1,0.7c0.3,0.3,0.6,0.6,0.7,1.1l-1.4,0.3
	c-0.1-0.3-0.3-0.6-0.5-0.7c-0.3-0.2-0.6-0.3-0.9-0.3c-0.5,0-0.9,0.2-1.3,0.5c-0.3,0.3-0.5,0.8-0.5,1.6c0,0.8,0.2,1.3,0.5,1.6
	c0.3,0.3,0.7,0.5,1.2,0.5c0.4,0,0.7-0.1,1-0.3C80.2,48.6,80.4,48.2,80.5,47.8z"/>
</svg>
