<?xml version="1.0" encoding="UTF-8"?>
<svg width="100" height="51" viewBox="0 0 100 51" xmlns="http://www.w3.org/2000/svg" xmlns:xlink="http://www.w3.org/1999/xlink"><title>Group 9</title><desc>Created using Figma</desc><g transform="translate(8252 -109)"><path fill="#FFF" d="M-8252 109h100v51h-100z"/><clipPath id="a" clip-rule="evenodd"><path d="M-8392-15h1440v5090h-1440V-15z" fill="#FFF"/></clipPath><g clip-path="url(#a)"><path d="M-8392-15h1440v5090h-1440V-15z" fill="#FFF"/><use xlink:href="#b" transform="translate(-8392 85)" fill="#FFF"/><mask id="d"><use xlink:href="#c" transform="translate(-8161.09 109.359)" fill="#FFF"/></mask><g mask="url(#d)"><use xlink:href="#e" transform="translate(-8161.09 109.359)" fill="#000104"/></g><use xlink:href="#f" transform="translate(-8252 109.321)" fill="#262624"/><use xlink:href="#e" transform="translate(-8161.09 109.359)" fill="#262624"/><use xlink:href="#g" transform="translate(-8238.15 150.776)" fill="#262624"/><use xlink:href="#h" transform="translate(-8230.09 150.776)"/><use xlink:href="#i" transform="translate(-8218.59 150.776)"/><use xlink:href="#j" transform="translate(-8203.94 150.628)"/><use xlink:href="#k" transform="translate(-8194.75 150.776)" fill="#262624"/><use xlink:href="#l" transform="translate(-8183.59 150.628)"/><use xlink:href="#m" transform="translate(-8170.69 150.776)"/><use xlink:href="#g" transform="translate(-8238.15 150.776)" fill="#262624"/><use xlink:href="#h" transform="translate(-8230.09 150.776)" fill="#262624"/><use xlink:href="#i" transform="translate(-8218.59 150.776)" fill="#262624"/><use xlink:href="#j" transform="translate(-8203.94 150.628)" fill="#262624"/><use xlink:href="#k" transform="translate(-8194.75 150.776)" fill="#262624"/><use xlink:href="#l" transform="translate(-8183.59 150.628)" fill="#262624"/><use xlink:href="#m" transform="translate(-8170.69 150.776)" fill="#262624"/></g></g><defs><path id="b" fill-rule="evenodd" d="M0 0h1440v100H0V0z"/><path id="c" fill-rule="evenodd" d="M8.954 0v8.907H0V0h8.954z"/><path id="e" fill-rule="evenodd" d="M4.48 8.907c2.466 0 4.475-1.996 4.475-4.453C8.955 1.999 6.945 0 4.48 0 2.01 0 0 1.999 0 4.454 0 6.91 2.01 8.907 4.48 8.907z"/><path id="f" fill-rule="evenodd" d="M95.39 8.946c2.465 0 4.474-1.996 4.474-4.454 0-2.455-2.009-4.454-4.475-4.454-2.47 0-4.48 2-4.48 4.454 0 2.458 2.01 4.454 4.48 4.454zm0 3.71c-1.947 0-3.526 1.569-3.526 3.506V29.06c0 1.94 1.58 3.506 3.526 3.506a3.514 3.514 0 0 0 3.524-3.506v-12.9a3.516 3.516 0 0 0-3.524-3.506zM76.77 25.56c-2.469 0-4.476-2.003-4.476-4.455 0-2.453 2.007-4.457 4.476-4.457 2.47 0 4.479 2.004 4.479 4.457 0 2.451-2.009 4.455-4.48 4.455zM84.773 0c-1.947 0-3.524 1.569-3.524 3.504v7.035a11.533 11.533 0 0 0-4.48-.896c-6.356 0-11.528 5.135-11.528 11.462 0 6.316 5.172 11.462 11.529 11.462S88.3 27.421 88.3 21.105v-17.6C88.3 1.568 86.72 0 84.773 0zm-33.36 25.56c-2.468 0-4.476-2.003-4.476-4.455 0-2.453 2.008-4.457 4.477-4.457 2.472 0 4.48 2.004 4.48 4.457 0 2.451-2.008 4.455-4.48 4.455zm0-15.917c-6.356 0-11.528 5.135-11.528 11.462 0 6.316 5.172 11.462 11.529 11.462 6.36 0 11.529-5.146 11.529-11.462 0-6.327-5.17-11.462-11.53-11.462zm-24.974 0c-2.952 0-5.64 1.144-7.638 3.012a11.152 11.152 0 0 0-7.637-3.012C5.007 9.643 0 14.619 0 20.74v8.321a3.513 3.513 0 0 0 3.524 3.506c1.945 0 3.526-1.566 3.526-3.506V20.74c0-2.258 1.845-4.092 4.114-4.092 2.266 0 4.111 1.834 4.111 4.092v8.321a3.513 3.513 0 0 0 3.525 3.506c1.944 0 3.526-1.566 3.526-3.506V20.74c0-2.258 1.845-4.092 4.113-4.092 2.267 0 4.115 1.834 4.115 4.092v8.321a3.513 3.513 0 0 0 3.523 3.506c1.946 0 3.528-1.566 3.528-3.506V20.74c0-6.121-5.011-11.097-11.166-11.097z"/><path id="g" fill-rule="evenodd" d="M4.325 0v1.248H1.168v2.435h2.908V4.93H1.168v3.942H0V0h4.325z"/><path id="h" fill-rule="evenodd" d="M7.022 0v5.326c0 .535-.083 1.03-.25 1.483a3.472 3.472 0 0 1-.701 1.174 3.09 3.09 0 0 1-1.106.766 3.763 3.763 0 0 1-1.46.272c-.523 0-.999-.089-1.43-.266A3.166 3.166 0 0 1 .97 8.007a3.377 3.377 0 0 1-.714-1.16A4.274 4.274 0 0 1 0 5.337V0h1.168v5.35c0 .371.056.705.168 1.002A2.075 2.075 0 0 0 2.56 7.594c.29.11.609.167.957.167a2.6 2.6 0 0 0 .97-.174c.29-.115.536-.28.738-.494.204-.214.36-.47.467-.766.108-.297.161-.626.161-.989V0h1.169z"/><path id="i" fill-rule="evenodd" d="M1.268 0l4.76 6.97V0h1.168v8.873H5.928L1.168 1.94v6.933H0V0h1.268z"/><path id="j" fill-rule="evenodd" d="M4.505 5.11c.145.16.27.33.373.506.103.178.184.365.242.562.058.198.087.413.087.643 0 .346-.062.663-.186.952a2.154 2.154 0 0 1-.522.741 2.402 2.402 0 0 1-.802.482 2.962 2.962 0 0 1-1.037.173 2.97 2.97 0 0 1-.895-.136c-.29-.09-.555-.21-.796-.358a3.119 3.119 0 0 1-.615-.488A1.614 1.614 0 0 1 0 7.662l.36-1.187c.274.429.624.775 1.05 1.038.427.264.877.396 1.349.396.423 0 .735-.097.938-.29.203-.194.305-.448.305-.76 0-.231-.07-.454-.212-.668a2.428 2.428 0 0 0-.522-.568c-.521-.437-.953-.796-1.292-1.076a8.385 8.385 0 0 1-.808-.741 4.236 4.236 0 0 1-.64-.846 1.864 1.864 0 0 1-.23-.921c0-.313.056-.595.168-.846C.578.94.736.727.938.55c.203-.178.446-.313.727-.408A2.872 2.872 0 0 1 3.305.1c.232.066.446.154.641.265.195.112.369.241.522.39.153.148.276.305.366.47l-.26 1.161a3.418 3.418 0 0 0-.901-.79 2.112 2.112 0 0 0-1.125-.335c-.29 0-.537.064-.74.192-.203.128-.304.336-.304.624a.96.96 0 0 0 .236.612c.157.193.315.352.472.476.307.246.562.448.764.605.204.156.37.288.498.395.128.107.234.194.316.26.083.066.158.132.224.198.182.164.346.327.491.488z"/><path id="k" fill-rule="evenodd" d="M1.168 0v3.683h4.835V0H7.17v8.873H6.003V4.93H1.168v3.942H0V0h1.168z"/><path id="l" fill-rule="evenodd" d="M3.169 1.508a3.13 3.13 0 0 0-1.038.691 3.267 3.267 0 0 0-.695 1.057c-.17.408-.255.855-.255 1.34 0 .487.084.934.254 1.342a3.097 3.097 0 0 0 1.734 1.73c.398.16.828.24 1.292.24.456 0 .883-.08 1.28-.24.398-.16.742-.388 1.032-.68.29-.293.52-.643.69-1.05.17-.408.254-.86.254-1.353a3.45 3.45 0 0 0-.254-1.341 3.105 3.105 0 0 0-1.721-1.736 3.313 3.313 0 0 0-1.28-.248 3.34 3.34 0 0 0-1.293.248zM6.152.346c.538.23 1.01.552 1.416.964.407.412.73.898.97 1.458.24.56.36 1.165.36 1.817a4.55 4.55 0 0 1-.36 1.822 4.7 4.7 0 0 1-.97 1.452 4.424 4.424 0 0 1-1.41.964 4.212 4.212 0 0 1-1.684.346 4.286 4.286 0 0 1-1.721-.352A4.508 4.508 0 0 1 .36 6.407 4.519 4.519 0 0 1 0 4.597c0-.651.12-1.259.36-1.823.24-.564.564-1.05.97-1.458A4.54 4.54 0 0 1 2.746.352 4.217 4.217 0 0 1 4.45 0c.596 0 1.164.115 1.703.346z"/><path id="m" fill-rule="evenodd" d="M1.168 4.14h1.517c.406 0 .745-.134 1.019-.402.273-.268.41-.616.41-1.044a1.51 1.51 0 0 0-.106-.562 1.38 1.38 0 0 0-.752-.772 1.44 1.44 0 0 0-.571-.112H1.168V4.14zM3.598.19c.344.128.64.312.888.55.25.24.446.525.591.86.145.333.218.701.218 1.105 0 .396-.069.758-.205 1.088-.137.33-.33.611-.579.846a2.664 2.664 0 0 1-.888.55 3.12 3.12 0 0 1-1.125.198h-1.33v3.485H0V0h2.486c.398 0 .768.064 1.112.191z"/></defs></svg>