<?xml version="1.0" encoding="UTF-8"?>
<svg width="171" height="50" viewBox="0 0 171 50" fill="none" xmlns="http://www.w3.org/2000/svg">
<path d="M62.0134 41.6507H64.8017V42.0346H62.4942V45.2976H62.0134V41.6507Z" fill="black"/>
<path d="M65.1855 41.6507H67.3008C68.0699 41.6507 68.4545 42.0346 68.4545 42.6104C68.4545 43.1862 68.0699 43.6661 67.3969 43.6661H65.6663V45.2976H65.1855V41.6507ZM67.2046 43.2822C67.6854 43.2822 67.8776 43.0903 67.8776 42.7064C67.8776 42.3225 67.5892 42.1306 67.2046 42.1306H65.5701V43.3782H67.2046V43.2822Z" fill="black"/>
<path d="M70.0901 44.05L68.4556 41.5548H69.0324L70.3785 43.5701L71.6284 41.5548H72.1091L69.8016 45.2016H69.3209L70.0901 44.05Z" fill="black"/>
<path d="M72.6848 41.6507H75.7615V45.2976H75.3769V42.0346H73.1655V45.2976H72.6848V41.6507Z" fill="black"/>
<path d="M76.8208 41.6507H79.8974V45.2976H79.4167V42.0346H77.2053V45.2976H76.7246V41.6507H76.8208Z" fill="black"/>
<path d="M82.1083 41.6507H82.4929L84.3197 45.2976H83.8389L83.3582 44.2419H81.3391L80.8584 45.2976H80.3777L82.1083 41.6507ZM83.1659 43.858L82.3968 42.3225L81.6276 43.858H83.1659Z" fill="black"/>
<path d="M86.915 41.6507H87.2996L88.7418 43.858L90.184 41.6507H90.5686V45.2976H90.184V42.4185L88.838 44.6258L87.4919 42.4185V45.2976H87.1073V41.6507H86.915Z" fill="black"/>
<path d="M91.2427 43.4741C91.2427 42.4185 92.0118 41.5548 93.1656 41.5548C94.2232 41.5548 95.0885 42.4185 95.0885 43.4741C95.0885 44.6258 94.3194 45.3935 93.1656 45.3935C92.0118 45.3935 91.2427 44.6258 91.2427 43.4741ZM94.6078 43.4741C94.6078 42.6104 94.0309 41.9386 93.1656 41.9386C92.3964 41.9386 91.7234 42.6104 91.7234 43.4741C91.7234 44.3379 92.3003 45.0097 93.1656 45.0097C93.9348 45.0097 94.6078 44.3379 94.6078 43.4741Z" fill="black"/>
<path d="M99.1257 44.4338C98.7411 45.1056 98.1643 45.3935 97.3951 45.3935C96.3375 45.3935 95.4722 44.6258 95.4722 43.4741C95.4722 42.4185 96.3375 41.5548 97.3951 41.5548C98.0681 41.5548 98.645 41.9386 99.0296 42.4185L98.645 42.7064C98.3566 42.2265 97.8758 41.9386 97.3951 41.9386C96.6259 41.9386 95.9529 42.6104 95.9529 43.4741C95.9529 44.3379 96.5298 45.0097 97.3951 45.0097C97.972 45.0097 98.4527 44.7218 98.7411 44.1459L99.1257 44.4338Z" fill="black"/>
<path d="M99.7991 41.6507H100.28V43.4742L102.395 41.6507H102.972L101.53 42.9943L103.26 45.3935H102.683L101.241 43.2822L100.376 44.05V45.3935H99.8952V41.6507H99.7991Z" fill="black"/>
<path d="M103.165 43.4741C103.165 42.4185 104.03 41.5548 105.088 41.5548C106.146 41.5548 107.011 42.4185 107.011 43.4741C107.011 44.6258 106.146 45.3935 105.088 45.3935C104.03 45.3935 103.165 44.6258 103.165 43.4741ZM106.53 43.4741C106.53 42.6104 105.857 41.9386 105.088 41.9386C104.319 41.9386 103.646 42.6104 103.646 43.4741C103.646 44.3379 104.223 45.0097 105.088 45.0097C105.953 45.0097 106.53 44.3379 106.53 43.4741Z" fill="black"/>
<path d="M107.682 41.6507H109.894C110.663 41.6507 110.951 41.9386 110.951 42.6104C110.951 42.8983 110.855 43.0903 110.567 43.2822C110.951 43.4742 111.24 43.858 111.24 44.2419C111.24 44.9137 110.759 45.3935 109.99 45.3935H107.682V41.6507ZM109.894 43.0903C110.278 43.0903 110.471 42.8983 110.471 42.6104C110.471 42.2266 110.278 42.1306 109.894 42.1306H108.163V43.1863H109.894V43.0903ZM110.086 44.9137C110.567 44.9137 110.759 44.6258 110.759 44.2419C110.759 43.858 110.567 43.5701 110.086 43.5701H108.163V44.9137H110.086Z" fill="black"/>
<path d="M115.375 44.4338C115.086 45.1056 114.509 45.3935 113.74 45.3935C112.587 45.3935 111.817 44.6258 111.817 43.4741C111.817 42.4185 112.587 41.5548 113.74 41.5548C114.413 41.5548 114.99 41.9386 115.375 42.4185L114.99 42.7064C114.798 42.2265 114.317 41.9386 113.74 41.9386C112.875 41.9386 112.298 42.6104 112.298 43.4741C112.298 44.3379 112.971 45.0097 113.74 45.0097C114.317 45.0097 114.702 44.7218 115.086 44.1459L115.375 44.4338Z" fill="black"/>
<path d="M116.048 41.6507H116.528V43.4742L118.547 41.6507H119.22L117.682 42.9943L119.413 45.3935H118.836L117.297 43.2822L116.432 44.05V45.3935H115.951V41.6507H116.048Z" fill="black"/>
<path d="M121.239 41.6507H121.624L123.451 45.2976H122.97L122.489 44.2419H120.47L119.989 45.2976H119.413L121.239 41.6507ZM122.201 43.858L121.432 42.3225L120.566 43.858H122.201Z" fill="black"/>
<path d="M126.335 45.2976V43.6661H125.085L124.027 45.2976H123.547L124.604 43.6661C124.412 43.6661 124.027 43.6661 123.835 43.3782C123.739 43.1862 123.547 42.9943 123.547 42.6104C123.547 42.3225 123.643 42.0346 123.835 41.8427C123.931 41.6507 124.22 41.5548 124.7 41.5548H126.719V45.2016H126.335V45.2976ZM126.335 42.0346H124.7C124.604 42.0346 124.412 42.0346 124.22 42.1306C124.124 42.2265 124.027 42.4185 124.027 42.7064C124.027 42.8983 124.124 43.0903 124.22 43.1862C124.316 43.2822 124.412 43.3782 124.7 43.3782H126.335V42.0346Z" fill="black"/>
<path d="M129.894 41.6507H132.97V42.0346H130.374V43.0903H132.009C132.393 43.0903 132.778 43.1863 133.066 43.4742C133.163 43.5701 133.259 43.858 133.259 44.2419C133.259 44.6258 133.163 44.9137 132.97 45.0097C132.682 45.2976 132.297 45.3935 132.009 45.3935H129.894V41.6507ZM132.105 44.9137C132.297 44.9137 132.489 44.8177 132.586 44.7218C132.682 44.6258 132.778 44.5298 132.778 44.2419C132.778 43.954 132.682 43.858 132.586 43.7621C132.393 43.5701 132.105 43.5701 132.009 43.5701H130.278V44.9137H132.105Z" fill="black"/>
<path d="M136.815 45.2976V42.4185L134.411 45.2976H134.123V41.6507H134.604V44.5298L137.007 41.6507H137.296V45.2976H136.815Z" fill="black"/>
<path d="M138.162 41.6507H140.277C141.046 41.6507 141.431 42.0346 141.431 42.6104C141.431 43.1862 141.046 43.6661 140.373 43.6661H138.642V45.2976H138.162V41.6507ZM140.277 43.2822C140.758 43.2822 140.95 43.0903 140.95 42.7064C140.95 42.3225 140.758 42.1306 140.277 42.1306H138.642V43.3782H140.277V43.2822Z" fill="black"/>
<path d="M143.738 43.9541L143.161 43.4742L141.815 45.3936H141.334L142.968 43.1863L141.526 41.7468H142.103L143.834 43.5702V41.7468H144.315V43.5702L145.949 41.7468H146.526L145.18 43.1863L146.814 45.3936H146.141L144.795 43.4742L144.218 43.9541V45.2976H143.738V43.9541Z" fill="black"/>
<path d="M148.449 41.6507H148.834L150.661 45.2976H150.18L149.699 44.2419H147.68L147.199 45.2976H146.719L148.449 41.6507ZM149.507 43.858L148.738 42.3225L147.969 43.858H149.507Z" fill="black"/>
<path d="M67.2058 9.213H63.5522V12.8598H61.9177V4.79842H63.5522V7.67749H67.2058V4.79842H68.8403V12.8598H67.2058V9.213Z" fill="black"/>
<path d="M76.1484 10.8445H72.4948L71.5334 12.8598H69.8027L73.7447 4.79842H74.9946L78.9366 12.8598H77.206L76.1484 10.8445ZM73.1679 9.30897H75.2831L74.2255 7.19765L73.1679 9.30897Z" fill="black"/>
<path d="M86.2438 4.79842V11.3243H87.5898V14.5873H86.2438V12.7639H79.7058V4.79842H81.3403V11.3243H84.6093V4.79842H86.2438Z" fill="black"/>
<path d="M90.185 12.8598H89.0312V4.79842H90.6657V9.98076L94.8 4.79842H95.8576V12.8598H94.3193V7.58153L90.185 12.8598Z" fill="black"/>
<path d="M101.722 13.0518C101.145 13.0518 100.568 12.9558 100.087 12.7639C99.6065 12.5719 99.1257 12.284 98.7412 11.9001C98.3566 11.5163 98.0681 11.1324 97.8758 10.5566C97.6836 10.0767 97.5874 9.50091 97.5874 8.9251C97.5874 8.34928 97.6836 7.77346 97.8758 7.29362C98.0681 6.81377 98.3566 6.33392 98.7412 5.95005C99.1257 5.56617 99.5103 5.27826 100.087 5.08632C100.568 4.89439 101.145 4.79842 101.722 4.79842C102.299 4.79842 102.875 4.89439 103.356 5.08632C103.933 5.27826 104.318 5.56617 104.702 5.95005C104.991 6.33392 105.375 6.81377 105.568 7.29362C105.76 7.77346 105.856 8.34928 105.856 8.9251C105.856 9.50091 105.76 10.0767 105.568 10.5566C105.375 11.1324 104.991 11.5163 104.702 11.9001C104.318 12.284 103.933 12.5719 103.356 12.7639C102.875 12.9558 102.395 13.0518 101.722 13.0518ZM101.722 6.14199C101.337 6.14199 101.049 6.23796 100.76 6.33393C100.376 6.42989 100.183 6.62183 99.8949 6.90974C99.7026 7.19765 99.5103 7.38959 99.4142 7.77346C99.318 8.06137 99.2219 8.44525 99.2219 8.82913C99.2219 9.213 99.2219 9.59688 99.4142 9.88479C99.5103 10.1727 99.7026 10.4606 99.8949 10.7485C100.087 10.9405 100.376 11.1324 100.76 11.3243C101.049 11.4203 101.433 11.5163 101.722 11.5163C102.106 11.5163 102.491 11.5163 102.683 11.3243C102.972 11.1324 103.26 11.0364 103.548 10.7485C103.741 10.5566 103.933 10.2687 104.029 9.88479C104.125 9.59688 104.221 9.213 104.221 8.82913C104.221 8.44525 104.221 8.06137 104.029 7.77346C103.933 7.38959 103.741 7.19765 103.548 6.90974C103.356 6.7178 103.068 6.52586 102.683 6.33393C102.491 6.23796 102.106 6.14199 101.722 6.14199Z" fill="black"/>
<path d="M112.779 9.213H109.125V12.8598H107.491V4.79842H109.125V7.67749H112.779V4.79842H114.413V12.8598H112.779V9.213Z" fill="black"/>
<path d="M121.624 10.8445H117.971L117.105 12.8598H115.375L119.317 4.79842H120.567L124.509 12.8598H122.778L121.624 10.8445ZM118.74 9.30897H120.855L119.797 7.19765L118.74 9.30897Z" fill="black"/>
<path d="M129.22 7.10168L126.817 12.8598H124.99L128.643 4.79842H129.797L133.451 12.8598H131.72L129.22 7.10168Z" fill="black"/>
<path d="M138.161 7.67749C138.834 7.67749 139.315 7.67749 139.796 7.86943C140.276 7.9654 140.661 8.25331 140.949 8.54122C141.142 8.82913 141.334 9.02106 141.43 9.40494C141.526 9.69285 141.622 9.98076 141.622 10.2687C141.622 10.7485 141.526 11.1324 141.334 11.5163C141.238 11.8042 140.949 12.0921 140.757 12.1881C140.565 12.38 140.372 12.476 140.18 12.5719C139.988 12.6679 139.796 12.7639 139.603 12.7639C139.411 12.7639 139.219 12.8598 139.026 12.8598C138.93 12.8598 138.738 12.8598 138.642 12.8598H134.315V4.79842H135.95V7.67749H138.161ZM138.642 11.3243C138.738 11.3243 138.93 11.3243 139.122 11.3243C139.219 11.3243 139.411 11.2284 139.603 11.1324C139.699 11.0364 139.796 10.9405 139.796 10.7485C139.892 10.5566 139.892 10.4606 139.892 10.2687C139.892 10.0767 139.892 9.88479 139.796 9.78882C139.796 9.69285 139.699 9.50091 139.603 9.40494C139.507 9.30897 139.315 9.213 139.122 9.213C138.93 9.213 138.834 9.213 138.738 9.213H135.95V11.3243H138.642Z" fill="black"/>
<path d="M148.161 9.213H144.508V12.8598H142.873V4.79842H144.508V7.67749H148.161V4.79842H149.796V12.8598H148.161V9.213Z" fill="black"/>
<path d="M155.276 7.67749C155.853 7.67749 156.429 7.67749 156.91 7.86943C157.391 7.9654 157.775 8.25331 158.064 8.54122C158.256 8.82913 158.448 9.02106 158.545 9.40494C158.641 9.69285 158.641 9.98076 158.641 10.1727C158.641 10.6525 158.641 11.0364 158.449 11.3243C158.352 11.6122 158.16 11.9001 157.968 12.0921C157.583 12.38 157.295 12.5719 157.006 12.6679C156.622 12.7639 156.237 12.7639 155.949 12.7639H151.718V4.79842H153.257V7.67749H155.276ZM155.853 11.3243C156.045 11.3243 156.141 11.3243 156.333 11.3243C156.526 11.3243 156.622 11.2284 156.718 11.1324C156.91 11.0364 157.006 10.8445 157.006 10.7485C157.006 10.5566 157.102 10.4606 157.102 10.3646C157.102 10.2687 157.102 10.0767 157.006 9.98076C157.006 9.88479 156.91 9.69285 156.814 9.59688C156.718 9.50091 156.526 9.40494 156.429 9.40494C156.237 9.40494 156.141 9.40494 155.949 9.40494H153.257V11.3243H155.853ZM159.987 4.79842H161.621V12.8598H159.987V4.79842Z" fill="black"/>
<path d="M164.602 12.8599H163.544V4.79845H165.179V9.98079L169.313 4.79845H170.371V12.8599H168.736V7.58156L164.602 12.8599ZM169.409 2.30325C169.409 2.39921 169.409 2.49518 169.313 2.68712C169.313 2.87906 169.313 2.97503 169.217 3.16697C169.217 3.26294 169.121 3.45488 169.025 3.55085C168.929 3.64682 168.832 3.83875 168.736 3.93472C168.544 4.12666 168.159 4.22263 167.871 4.22263C167.583 4.22263 167.294 4.3186 167.102 4.3186C166.91 4.3186 166.621 4.3186 166.333 4.22263C166.044 4.22263 165.756 4.12666 165.467 3.93472C165.371 3.83875 165.179 3.74279 165.179 3.55085C165.083 3.35891 164.987 3.26294 164.987 3.16697C164.987 2.97503 164.89 2.87906 164.89 2.68712C164.89 2.49518 164.89 2.39921 164.89 2.30325H166.14C166.14 2.68712 166.237 2.87906 166.429 3.071C166.525 3.16697 166.717 3.16697 166.813 3.16697C166.91 3.16697 167.102 3.16697 167.198 3.16697C167.294 3.16697 167.39 3.16697 167.583 3.16697C167.679 3.16697 167.871 3.071 167.967 2.97503C168.159 2.87906 168.256 2.59115 168.352 2.30325H169.409Z" fill="black"/>
<path d="M66.533 16.7946C67.1099 16.7946 67.4945 16.8905 67.7829 16.9865C68.0713 17.0825 68.3598 17.2744 68.5521 17.4664C68.7444 17.6583 68.8405 17.8502 68.9366 18.1381C69.0328 18.4261 69.1289 18.8099 69.1289 19.1938C69.1289 19.6737 69.0328 20.0575 68.9366 20.3454C68.7443 20.6333 68.6482 20.8253 68.4559 21.0172C68.2636 21.2092 68.1675 21.3051 67.9752 21.4011C67.7829 21.4971 67.5906 21.593 67.4944 21.593C67.3022 21.593 67.206 21.689 67.0137 21.689C66.8214 21.689 66.7253 21.689 66.6291 21.689H63.5525V24.76H61.918V16.7946H66.533ZM66.4368 20.1535C66.533 20.1535 66.7253 20.1535 66.8214 20.1535C67.0137 20.1535 67.1099 20.0575 67.3022 19.9616C67.3022 19.9616 67.3983 19.8656 67.4944 19.7696C67.5906 19.6737 67.5906 19.4817 67.5906 19.1938C67.5906 19.0019 67.5906 18.8099 67.4944 18.714C67.3983 18.618 67.3983 18.522 67.3022 18.522C67.206 18.4261 67.1099 18.3301 66.9176 18.3301C66.8214 18.3301 66.6291 18.3301 66.4368 18.3301H63.5525V20.2495H66.4368V20.1535Z" fill="black"/>
<path d="M75.0905 22.7447H71.437L70.4755 24.76H68.7449L72.6869 16.7946H73.9368L77.8788 24.76H76.1481L75.0905 22.7447ZM72.2061 21.2092H74.3214L73.2637 19.0978L72.2061 21.2092Z" fill="black"/>
<path d="M85.9543 22.7447C85.762 23.1285 85.5697 23.4164 85.2813 23.7043C84.9928 23.9923 84.7044 24.1842 84.5121 24.3761C84.1275 24.5681 83.8391 24.76 83.4545 24.856C83.0699 24.952 82.6853 24.952 82.3007 24.952C81.7239 24.952 81.2431 24.856 80.6663 24.664C80.1855 24.4721 79.7048 24.1842 79.2241 23.8003C78.9356 23.4164 78.6472 23.0326 78.3588 22.5527C78.1665 22.0729 78.0703 21.4011 78.0703 20.8253C78.0703 20.2495 78.1665 19.7696 78.3588 19.1938C78.551 18.618 78.8395 18.1381 79.2241 17.7543C79.4164 17.6583 79.5125 17.4663 79.7048 17.3704C79.8971 17.2744 80.0894 17.0825 80.3778 16.9865C80.6663 16.8905 80.8586 16.7946 81.2431 16.6986C81.5316 16.6026 81.9162 16.6026 82.3007 16.6026C82.7815 16.6026 83.1661 16.6986 83.5507 16.7946C83.9352 16.8905 84.2237 16.9865 84.5121 17.1784C84.8006 17.3704 84.9928 17.5623 85.2813 17.7543C85.5697 17.9462 85.762 18.2341 85.9543 18.522L84.6083 19.4817C84.5121 19.2898 84.416 19.0978 84.2237 18.9059C84.0314 18.7139 83.9352 18.618 83.7429 18.522C83.6468 18.426 83.3584 18.3301 83.1661 18.3301C82.9738 18.2341 82.6853 18.2341 82.3969 18.2341C82.0123 18.2341 81.6277 18.2341 81.4354 18.426C81.147 18.522 80.8586 18.7139 80.6663 18.9059C80.474 19.0978 80.2817 19.3857 80.1855 19.6736C79.8009 19.8656 79.8009 20.3454 79.8009 20.8253C79.8009 21.2091 79.8971 21.593 79.9932 21.9769C80.0894 22.3608 80.2817 22.5527 80.5701 22.7447C80.7624 22.9366 81.0508 23.1285 81.3393 23.2245C81.6277 23.3205 81.9162 23.4164 82.3007 23.4164C82.6853 23.4164 82.8776 23.4164 83.1661 23.3205C83.3584 23.2245 83.6468 23.1285 83.8391 22.9366C84.0314 22.8406 84.2237 22.6487 84.3198 22.4567C84.5121 22.2648 84.6083 22.0729 84.8005 21.785L85.9543 22.7447Z" fill="black"/>
<path d="M92.012 24.76V21.4971H89.9929C89.8006 21.4971 89.6084 21.4971 89.3199 21.4971C89.1276 21.4971 88.8392 21.4011 88.6469 21.4011C88.4546 21.4011 88.2623 21.3051 87.9739 21.2092C87.7816 21.1132 87.5893 20.9213 87.4931 20.8253C87.2047 20.5374 87.0124 20.2495 87.0124 19.8656C87.0124 19.5777 86.9163 19.1938 86.9163 19.0019V16.8905H88.4546V18.618C88.4546 18.8099 88.4546 19.0019 88.5507 19.1938C88.5507 19.4817 88.6469 19.6737 88.8392 19.7696C88.9353 19.8656 89.0315 19.9616 89.2238 19.9616C89.3199 19.9616 89.5122 20.0575 89.6084 20.0575C89.7045 20.0575 89.8968 20.0575 89.9929 20.0575C90.0891 20.0575 90.1852 20.0575 90.2814 20.0575H92.012V16.7946H93.6465V24.76H92.012Z" fill="black"/>
<path d="M95.9528 16.7946H102.395V18.3301H97.4912V19.8656H100.376V21.4011H97.4912V23.4165H102.587V24.76H95.8567V16.7946H95.9528Z" fill="black"/>
<path d="M108.549 24.76H106.914V18.2341H103.838V16.6986H111.625V18.2341H108.549V24.76Z" fill="black"/>
<path d="M118.258 21.1132H114.605V24.76H112.97V16.7946H114.605V19.6737H118.258V16.7946H119.797V24.76H118.258V21.1132Z" fill="black"/>
<path d="M125.663 19.6737C126.24 19.6737 126.817 19.7696 127.298 19.8656C127.779 19.9616 128.163 20.2495 128.548 20.5374C128.74 20.8253 128.932 21.1132 129.028 21.3051C129.028 21.593 129.125 21.881 129.125 22.1689C129.125 22.6487 129.125 23.0326 128.932 23.3205C128.836 23.6084 128.644 23.8963 128.452 24.0882C128.163 24.3762 127.779 24.5681 127.394 24.6641C127.009 24.76 126.721 24.76 126.336 24.76H122.106V16.7946H123.74V19.6737H125.663ZM126.24 23.2245C126.336 23.2245 126.529 23.2245 126.721 23.2245C126.817 23.2245 127.009 23.1286 127.106 23.0326C127.202 22.9366 127.298 22.7447 127.394 22.6487C127.394 22.4568 127.394 22.3608 127.394 22.2648C127.394 22.1689 127.394 21.9769 127.394 21.881C127.394 21.785 127.298 21.593 127.202 21.4971C127.106 21.4011 126.913 21.3051 126.721 21.3051C126.625 21.3051 126.433 21.3051 126.24 21.3051H123.548V23.4165H126.24V23.2245ZM130.182 16.7946H131.721V24.76H130.182V16.7946Z" fill="black"/>
<path d="M134.701 24.7601H133.643V16.7946H135.278V21.9769L139.316 16.7946H140.47V24.7601H138.835V19.5777L134.701 24.7601ZM139.412 14.2034C139.412 14.2994 139.412 14.4913 139.412 14.5873C139.412 14.7792 139.316 14.8752 139.316 15.0672C139.22 15.2591 139.22 15.3551 139.124 15.547C139.124 15.7389 138.931 15.8349 138.835 15.9309C138.547 16.1228 138.258 16.2188 137.97 16.2188C137.681 16.2188 137.393 16.2188 137.105 16.2188C136.912 16.2188 136.624 16.2188 136.335 16.2188C136.047 16.2188 135.759 16.0268 135.47 15.9309C135.374 15.8349 135.278 15.7389 135.182 15.547C135.086 15.3551 134.989 15.2591 134.989 15.0672C134.989 14.9712 134.893 14.7792 134.893 14.5873C134.893 14.4913 134.893 14.2994 134.893 14.2034H136.047C136.047 14.5873 136.143 14.7792 136.335 14.9712C136.432 15.0672 136.624 15.0672 136.72 15.0672C136.816 15.0672 137.008 15.0672 137.105 15.0672C137.201 15.0672 137.393 15.0672 137.489 15.0672C137.585 15.0672 137.778 14.9712 137.97 14.8752C138.162 14.7792 138.258 14.4913 138.258 14.2034H139.412Z" fill="black"/>
<path d="M69.7058 36.7562H63.264V38.5796H61.918V35.2207H63.1679L66.0523 28.6948H67.0137L69.8981 35.2207H71.0519V38.5796H69.7058V36.7562ZM66.533 31.19L64.8985 35.2207H68.1675L66.533 31.19Z" fill="black"/>
<path d="M72.4934 28.6948H78.9352V30.2303H74.0317V31.6698H77.0122V33.2053H74.0317V35.2207H79.2236V36.7562H72.3972V28.6948H72.4934Z" fill="black"/>
<path d="M86.1462 30.2303H82.4927V36.7562H80.9543V28.7907H87.7807V36.7562H86.1462V30.2303Z" fill="black"/>
<path d="M93.3569 36.9481C92.7801 36.9481 92.2032 36.8521 91.7225 36.6602C91.1456 36.4683 90.761 36.1804 90.3764 35.7965C89.9918 35.4126 89.7034 35.0287 89.5111 34.4529C89.3188 33.8771 89.2227 33.3972 89.2227 32.8214C89.2227 32.2456 89.3188 31.6698 89.5111 31.094C89.7034 30.6141 89.9918 30.1343 90.3764 29.7504C90.761 29.3665 91.1456 29.0786 91.7225 28.8867C92.2032 28.6947 92.7801 28.5988 93.3569 28.5988C93.9338 28.5988 94.5107 28.6947 94.9914 28.8867C95.5683 29.0786 95.9529 29.3665 96.3375 29.7504C96.7221 30.1343 97.0105 30.5182 97.2028 31.094C97.3951 31.5738 97.5874 32.1496 97.5874 32.8214C97.5874 33.3972 97.4912 33.9731 97.2028 34.4529C97.0105 34.9327 96.7221 35.4126 96.3375 35.7965C95.9529 36.1804 95.5683 36.4683 94.9914 36.6602C94.5107 36.8521 93.9338 36.9481 93.3569 36.9481ZM93.3569 30.0383C92.9724 30.0383 92.6839 30.1343 92.3955 30.2303C92.0109 30.4222 91.8186 30.6141 91.6263 30.8061C91.434 30.998 91.2417 31.2859 91.0494 31.6698C90.9533 31.9577 90.8571 32.3416 90.8571 32.7255C90.8571 33.1093 90.9533 33.4932 91.0494 33.7811C91.1456 34.069 91.434 34.3569 91.6263 34.6448C91.8186 34.8368 92.107 35.0287 92.3955 35.1247C92.6839 35.3166 93.0685 35.3166 93.3569 35.3166C93.7415 35.3166 94.03 35.3166 94.3184 35.1247C94.6068 35.0287 94.8953 34.8368 95.0876 34.6448C95.2799 34.4529 95.4722 34.165 95.5683 33.7811C95.6645 33.3972 95.7606 33.1093 95.7606 32.7255C95.7606 32.3416 95.7606 31.9577 95.5683 31.6698C95.4722 31.2859 95.2799 31.094 95.0876 30.8061C94.8953 30.6141 94.6068 30.4222 94.3184 30.2303C94.1261 30.1343 93.7415 30.0383 93.3569 30.0383Z" fill="black"/>
<path d="M99.3191 34.165C99.5114 34.261 99.7037 34.4529 99.9921 34.6449C100.281 34.7408 100.569 34.9328 100.857 35.0287C101.146 35.1247 101.434 35.2207 101.819 35.3166C102.107 35.3166 102.396 35.3166 102.684 35.3166C102.876 35.3166 103.165 35.3166 103.357 35.3166C103.646 35.3166 103.838 35.2207 104.03 35.1247C104.223 34.9328 104.415 34.8368 104.511 34.6449C104.607 34.4529 104.607 34.261 104.607 34.165C104.607 33.9731 104.607 33.8771 104.511 33.7811C104.415 33.6852 104.319 33.5892 104.223 33.4932C104.03 33.3972 103.742 33.3013 103.55 33.3013C103.261 33.3013 102.876 33.2053 102.492 33.2053H101.434V31.6698H102.684C102.973 31.6698 103.261 31.6698 103.453 31.6698C103.646 31.6698 103.742 31.5738 103.934 31.5738C104.03 31.5738 104.126 31.4779 104.223 31.3819C104.223 31.3819 104.319 31.19 104.319 30.998C104.319 30.902 104.319 30.8061 104.223 30.7101C104.223 30.6141 104.126 30.6141 104.03 30.5182C104.03 30.5182 103.934 30.4222 103.838 30.4222C103.742 30.4222 103.742 30.3262 103.742 30.3262C103.55 30.3262 103.357 30.2303 103.165 30.2303C102.973 30.2303 102.684 30.2303 102.396 30.2303C101.819 30.2303 101.242 30.3262 100.761 30.5182C100.281 30.7101 99.896 30.9021 99.5114 31.19L98.5499 29.9424C98.8384 29.7504 99.0306 29.5585 99.3191 29.4625C99.6075 29.3665 99.896 29.1746 100.184 29.0786C100.857 28.8867 101.627 28.6948 102.396 28.6948C102.492 28.6948 102.684 28.6948 102.973 28.6948C103.165 28.6948 103.357 28.6948 103.55 28.7907C103.742 28.8867 104.03 28.8867 104.223 28.9827C104.415 29.0786 104.703 29.1746 104.896 29.2706C105.088 29.3665 105.28 29.5585 105.472 29.7504C105.569 29.9424 105.665 30.1343 105.761 30.2303C105.761 30.4222 105.857 30.6141 105.857 30.7101C105.857 30.8061 105.857 30.998 105.857 31.094C105.857 31.3819 105.761 31.6698 105.665 31.9577C105.569 32.2456 105.28 32.4376 104.992 32.5335C105.184 32.6295 105.28 32.7255 105.472 32.8214C105.569 32.9174 105.665 33.0134 105.761 33.2053C105.953 33.3973 106.049 33.5892 106.049 33.7811C106.049 33.9731 106.049 34.165 106.049 34.261C106.049 34.6449 105.953 35.0287 105.857 35.4126C105.665 35.7965 105.472 36.0844 105.184 36.2763C104.799 36.5642 104.319 36.8521 103.838 36.9481C103.357 37.0441 102.876 37.0441 102.396 37.0441C101.915 37.0441 101.53 37.0441 101.146 36.9481C100.761 36.8521 100.377 36.7562 99.896 36.5642C99.2229 36.3723 98.7422 36.0844 98.2615 35.6045L99.3191 34.165Z" fill="black"/>
<path d="M109.222 36.7562H108.165V28.7907H109.799V33.9731L113.837 28.7907H114.991V36.7562H113.357V31.4779L109.222 36.7562Z" fill="black"/>
<path d="M121.047 36.7562H119.413V30.2303H116.336V28.6948H124.124V30.2303H121.047V36.7562Z" fill="black"/>
<path d="M129.99 34.7408H126.336L125.375 36.7562H123.644L127.586 28.7907H128.836L132.778 36.7562H131.047L129.99 34.7408ZM127.009 33.2053H129.124L128.067 31.094L127.009 33.2053Z" fill="black"/>
<path d="M138.162 28.6947C138.739 28.6947 139.124 28.6947 139.412 28.8867C139.701 28.9827 139.989 29.1746 140.181 29.2706C140.277 29.4625 140.47 29.6544 140.662 29.9423C140.758 30.2303 140.854 30.6141 140.854 30.998C140.854 31.4779 140.854 31.8617 140.662 32.1496C140.566 32.4376 140.374 32.7255 140.181 32.8214C140.085 33.0134 139.893 33.1093 139.701 33.2053C139.508 33.3013 139.412 33.3972 139.22 33.3972C139.028 33.4932 138.931 33.4932 138.739 33.4932C138.547 33.4932 138.451 33.4932 138.354 33.4932H135.278V36.5642H133.643V28.5988H138.162V28.6947ZM138.066 32.1496C138.162 32.1496 138.354 32.1496 138.451 32.1496C138.643 32.1496 138.739 32.0537 138.931 31.9577C138.931 31.9577 139.028 31.8617 139.028 31.6698C139.124 31.5738 139.124 31.3819 139.124 31.094C139.124 30.902 139.124 30.7101 139.028 30.6141C138.931 30.5182 138.931 30.4222 138.931 30.4222C138.835 30.3262 138.643 30.2303 138.547 30.2303C138.451 30.2303 138.258 30.2303 138.162 30.2303H135.278V32.1496H138.066Z" fill="black"/>
<path d="M143.45 36.7562H142.296V28.7907H143.931V33.9731L147.969 28.7907H149.123V36.7562H147.488V31.4779L143.45 36.7562Z" fill="black"/>
<path d="M152.103 36.7562H151.046V28.7908H152.68V33.9731L156.718 28.7908H157.776V36.7562H156.238V31.4779L152.103 36.7562ZM156.911 26.1996C156.911 26.2956 156.911 26.3915 156.911 26.5835C156.911 26.7754 156.814 26.8714 156.814 27.0633C156.814 27.2552 156.718 27.3512 156.622 27.5432C156.622 27.7351 156.43 27.8311 156.334 27.927C156.141 28.119 155.757 28.2149 155.468 28.2149C155.18 28.2149 154.892 28.3109 154.603 28.3109C154.411 28.3109 154.026 28.3109 153.738 28.2149C153.449 28.2149 153.161 28.119 152.969 27.927C152.872 27.8311 152.776 27.7351 152.68 27.5432C152.584 27.4472 152.584 27.2552 152.488 27.0633C152.488 26.8714 152.392 26.7754 152.392 26.5835C152.392 26.3915 152.392 26.2956 152.392 26.1996H153.545C153.545 26.5835 153.642 26.7754 153.93 26.9673C154.026 27.0633 154.122 27.0633 154.315 27.0633C154.507 27.0633 154.603 27.0633 154.795 27.0633C154.892 27.0633 154.988 27.0633 155.18 27.0633C155.372 27.0633 155.468 27.0633 155.661 26.9673C155.853 26.8714 155.949 26.5835 155.949 26.1996H156.911Z" fill="black"/>
<path d="M49.9961 0H0V50H49.9961V0Z" fill="#CE1126"/>
<path d="M12.3071 16.0269V33.6853L16.5376 36.3724L24.9023 28.0231L33.3632 36.3724L37.5936 33.6853V16.0269L33.3632 13.6277L24.9984 22.073L16.6337 13.6277L12.3071 16.0269ZM27.979 25.048L33.3632 19.6737V30.5183L27.979 25.048ZM16.6337 30.4223V19.6737L22.0179 25.048L16.6337 30.4223Z" fill="white"/>
<path d="M26.5362 23.5124L23.4595 26.5834L19.4214 22.4568L22.4019 19.4817L26.5362 23.5124Z" fill="url(#paint0_linear)"/>
<path d="M23.459 26.5835L26.5357 23.5124L30.67 27.6391L27.5933 30.6142L23.459 26.5835Z" fill="url(#paint1_linear)"/>
<path d="M27.1126 19.9616L30.0931 23.0326L22.8821 30.1343L19.9016 27.1593L27.1126 19.9616Z" fill="white"/>
<defs>
<linearGradient id="paint0_linear" x1="20.9231" y1="20.9648" x2="24.9971" y2="25.0463" gradientUnits="userSpaceOnUse">
<stop stop-color="white"/>
<stop offset="1" stop-color="#CE1126"/>
</linearGradient>
<linearGradient id="paint1_linear" x1="29.0994" y1="29.139" x2="25.0254" y2="25.0575" gradientUnits="userSpaceOnUse">
<stop stop-color="white"/>
<stop offset="1" stop-color="#CE1126"/>
</linearGradient>
</defs>
</svg>
