<?xml version="1.0" encoding="iso-8859-1"?>
<!-- Generator: Adobe Illustrator 19.0.0, SVG Export Plug-In . SVG Version: 6.00 Build 0)  -->
<svg version="1.1" id="Layer_1" xmlns="http://www.w3.org/2000/svg" xmlns:xlink="http://www.w3.org/1999/xlink" x="0px" y="0px"
	 viewBox="0 0 496 496" style="enable-background:new 0 0 496 496;" xml:space="preserve">
<path style="fill:#005DE5;" d="M496,320.8c0,96.8-78.4,175.2-175.2,175.2H175.2C78.4,496,0,417.6,0,320.8V175.2
	C0,78.4,78.4,0,175.2,0h145.6C417.6,0,496,78.4,496,175.2V320.8z"/>
<path style="fill:#0046E2;" d="M0,175.2C0,78.4,78.4,0,175.2,0h145.6C417.6,0,496,78.4,496,175.2v145.6
	c0,96.8-78.4,175.2-175.2,175.2"/>
<g>
	<path style="fill:#0030E0;" d="M320.8,0C417.6,0,496,78.4,496,175.2v145.6c0,96.8-78.4,175.2-175.2,175.2"/>
	<path style="fill:#0030E0;" d="M143.2,269.6c6.4,0,12-4.8,12-12V228c0-3.2,2.4-6.4,6.4-6.4H324L313.6,232c-4.8,4.8-4.8,12,0,16.8
		c2.4,2.4,5.6,3.2,8,3.2s5.6-0.8,8-3.2l31.2-31.2c2.4-2.4,3.2-4.8,3.2-8s-1.6-6.4-3.2-8l-31.2-31.2c-4.8-4.8-12-4.8-16.8,0
		s-4.8,12,0,16.8l12.8,12.8c-0.8,0-1.6,0-2.4,0H161.6c-16,0-29.6,12.8-29.6,29.6v29.6C132,264,136.8,269.6,143.2,269.6z M336,209.6
		l-0.8,0.8c0-0.8,0-1.6,0-2.4L336,209.6z"/>
	<path style="fill:#0030E0;" d="M352.8,263.2c-6.4,0-12,5.6-12,12V304c0,3.2-2.4,6.4-6.4,6.4H172.8l10.4-10.4c4.8-4.8,4.8-12,0-16.8
		s-12-4.8-16.8,0l-31.2,31.2c-2.4,2.4-3.2,4.8-3.2,8s1.6,6.4,3.2,8l31.2,31.2c2.4,2.4,5.6,3.2,8,3.2s5.6-0.8,8-3.2
		c4.8-4.8,4.8-12,0-16.8L169.6,332c0.8,0,1.6,0,2.4,0h162.4c16,0,29.6-12.8,29.6-29.6v-29.6C364,268,359.2,263.2,352.8,263.2z
		 M160,323.2l0.8-0.8c0,0.8,0,1.6,0,2.4L160,323.2z"/>
</g>
<g>
	<path style="fill:#FFFFFF;" d="M143.2,251.2c6.4,0,12-5.6,12-12v-29.6c0-3.2,2.4-6.4,6.4-6.4H324l-10.4,10.4
		c-4.8,4.8-4.8,12,0,16.8c2.4,2.4,5.6,3.2,8,3.2s5.6-0.8,8-3.2l31.2-31.2c2.4-2.4,3.2-4.8,3.2-8s-1.6-6.4-3.2-8L329.6,152
		c-4.8-4.8-12-4.8-16.8,0s-4.8,12,0,16.8l12.8,12.8c-0.8,0-1.6,0-2.4,0H161.6c-16,0-29.6,12.8-29.6,29.6v29.6
		C132,245.6,136.8,251.2,143.2,251.2z M336,191.2l-0.8,0.8c0-0.8,0-1.6,0-2.4L336,191.2z"/>
	<path style="fill:#FFFFFF;" d="M352.8,244.8c-6.4,0-12,5.6-12,12v29.6c0,3.2-2.4,6.4-6.4,6.4H172.8l10.4-10.4
		c4.8-4.8,4.8-12,0-16.8s-12-4.8-16.8,0l-31.2,31.2c-2.4,2.4-3.2,4.8-3.2,8s1.6,6.4,3.2,8l31.2,31.2c2.4,2.4,5.6,3.2,8,3.2
		s5.6-0.8,8-3.2c4.8-4.8,4.8-12,0-16.8l-12.8-12.8c0.8,0,1.6,0,2.4,0h162.4c16,0,29.6-12.8,29.6-29.6v-29.6
		C364,250.4,359.2,244.8,352.8,244.8z M160,304.8l0.8-0.8c0,0.8,0,1.6,0,2.4L160,304.8z"/>
</g>
<g>
</g>
<g>
</g>
<g>
</g>
<g>
</g>
<g>
</g>
<g>
</g>
<g>
</g>
<g>
</g>
<g>
</g>
<g>
</g>
<g>
</g>
<g>
</g>
<g>
</g>
<g>
</g>
<g>
</g>
</svg>
