<?xml version="1.0" encoding="utf-8"?>
<!-- Generator: Adobe Illustrator 23.0.1, SVG Export Plug-In . SVG Version: 6.00 Build 0)  -->
<svg version="1.1" id="Layer_1" xmlns="http://www.w3.org/2000/svg" xmlns:xlink="http://www.w3.org/1999/xlink" x="0px" y="0px"
	 viewBox="0 0 512 512" style="enable-background:new 0 0 512 512;" xml:space="preserve">
<style type="text/css">
	.st0{fill:#586DE9;}
</style>
<g>
	<path class="st0" d="M256.33,484.53c-128.61-0.34-230.3-106.19-227.41-233.22C31.74,127.44,134.76,25.57,263.08,28.95
		c120.95,3.18,222.62,102.55,221.4,230.13C483.29,383.84,382.03,484.55,256.33,484.53z M310.87,236.44
		c13.44,0.76,26.63-0.54,38.84-6.69c9.44-4.76,17.46-11.09,20.69-21.76c2.71-8.95-1.89-19.52-9.27-21.84
		c-5.68-1.79-12.6,0.42-16.63,5.31c-4.22,5.11-4.34,9.25-0.47,16.04c4.49,7.88,3.76,10.46-4.23,14.52
		c-11.16,5.68-23.09,5.57-35.14,4.66c-3.09-0.23-2.64-2.01-2.21-4.18c2.63-13.06,4.89-26.2,7.79-39.19
		c3.34-14.96,7.39-29.77,15.83-42.85c7.06-10.93,16.47-18.25,30.19-18.25c10.53,0,12.81,3.86,7.76,13.07
		c-0.16,0.29-0.34,0.58-0.49,0.87c-4.19,7.73-2.87,16.26,3.27,21.25c6.25,5.07,17.68,4.88,23.64-0.41
		c11.96-10.61,8.8-30.26-6.33-38.08c-15.96-8.25-32.5-7.57-48.93-1.76c-21.21,7.5-35.8,23.06-48.2,41.02
		c-10.08,14.61-17.64,30.52-23.36,47.28c-1.36,3.98-2.6,3.81-5.1,1.17c-1.94-2.05-4.1-3.9-6.16-5.84
		c-10.35-9.73-21.11-18.88-34.95-23.35c-23.37-7.54-44.6-3.78-62.19,13.69c-17.34,17.22-17.25,43.92-0.39,64.96
		c5.82,7.26,12.48,13.84,18.7,20.78c6.7,7.48,7.33,16.49,1.75,24.71c-9.57,14.09-29.76,13.52-41.27,2.9
		c-3.44-3.18-3.01-6.79-0.59-10.27c2.82-4.06,4.5-8.47,4.95-13.38c0.92-10-5.41-18.39-14.9-19.71c-10.08-1.4-16.93,3.87-18.72,14.72
		c-1.75,10.61,1.78,19.71,8.79,27.53c18.2,20.28,55.57,25.74,79.72,12.01c22.4-12.74,33.69-40.45,15.21-66.05
		c-6.65-9.22-14.31-17.51-21.93-25.88c-6.8-7.46-8.59-15.98-4.67-23.83c4.46-8.94,11.85-13.23,21.83-12.73
		c9.54,0.48,18.15,3.93,26.07,9.04c9.98,6.44,17.77,15.54,27.12,22.76c2.23,1.73,1.18,3.48,0.65,5.33
		c-3.74,12.95-6.84,26.05-9.6,39.24c-5.46,26.06-9.11,52.48-15.83,78.27c-4.88,18.72-10.23,37.27-22.52,52.8
		c-6.87,8.69-15.17,15.39-26.46,17.43c-3.45,0.62-6.97,0.56-8.71-3.02c-1.88-3.86,1.46-5.79,3.91-7.61
		c9.19-6.8,10.1-17.83,1.98-25.96c-6.6-6.61-16.03-7.92-24.81-3.44c-9.62,4.91-14.9,15.07-13.09,25.2
		c2.19,12.25,12.18,21.35,26.38,23.71c20.11,3.34,37.84-3.02,53.95-14.35c25.32-17.81,41.63-42.67,53.24-70.82
		c11.63-28.21,16.56-58.15,21.99-87.94c0.68-3.72-0.06-8.65,2.79-10.74C303,235.12,307.41,236.44,310.87,236.44z"/>
</g>
</svg>
