<?xml version="1.0" encoding="utf-8"?>
<!-- Generator: Adobe Illustrator 22.0.1, SVG Export Plug-In . SVG Version: 6.00 Build 0)  -->
<svg version="1.1" id="Слой_1" xmlns="http://www.w3.org/2000/svg" xmlns:xlink="http://www.w3.org/1999/xlink" x="0px" y="0px"
	 viewBox="0 0 122 70" style="enable-background:new 0 0 122 70;" xml:space="preserve">
<style type="text/css">
	.st0{fill:#000000;}
	.st1{fill:#F68B1F;}
</style>
<path class="st0" d="M121.3,12.9c-1-1.6-2.8-2.3-4.6-2.9c-1.2-0.3-2.5-0.6-3.6-1.1c-0.9-0.3-1.6-0.7-2.1-1.4c-0.8-1.1-0.7-2.6,0-3.7
	c0.4-0.7,1.1-1.2,1.9-1.5c1.1-0.4,2.3-0.4,3.4-0.3c1.3,0.1,2.5,0.4,3.8,0.9l0.6-1.6c-0.5-0.2-0.9-0.4-1.4-0.5
	c-1-0.3-1.9-0.4-2.9-0.5c-1.2-0.1-2.4-0.1-3.5,0.3c-1.4,0.4-2.7,1.2-3.5,2.4c-0.7,1.1-0.9,2.4-0.8,3.7c0.3,2.4,2.2,3.5,4.3,4.2
	c1.2,0.4,2.4,0.7,3.6,1c0.9,0.3,1.8,0.6,2.4,1.2c0.7,0.6,1.1,1.4,1.1,2.4c0,0.2,0,0.5,0,0.7c-0.1,1.6-0.9,2.6-2.2,3.2
	c-1,0.4-2.1,0.6-3.2,0.6c-1.3,0-2.7-0.2-4-0.6c-0.7-0.2-1.4-0.5-2-0.8l-0.7,1.5c2.1,1.1,4.4,1.6,6.8,1.6c1.1,0,2.2-0.2,3.2-0.5
	c2-0.7,3.4-2.1,3.8-4.3C122.1,15.4,122,14,121.3,12.9 M32.4,9.5H22.2V0.6h-1.8v20.6h1.8V11.2h10.2v10.1h1.8V0.6h-1.8V9.5z M0,2.2
	h6.6v19h1.8v-19h6.5V0.6H0V2.2z M72.9,17.3L65.3,0.6h-1.9v20.6h1.8V4.6L72,19.5h1.8l6.8-14.9v16.6h1.8V0.6h-1.9L72.9,17.3L72.9,17.3
	z M95.1,0.6l-6.8,20.6h1.9l5.9-18.4L99.7,14h-4.6l-0.5,1.6h5.6l1.8,5.6h1.9L97.2,0.6H95.1L95.1,0.6z M54.2,2.2c-1.8-1.7-3.8-2-5.5-2
	c-1.7,0-3.7,0.3-5.5,2c-2.2,2-2.9,5.7-2.9,8.6c0,2.9,0.7,6.6,2.9,8.6c1.8,1.7,3.8,2,5.5,2c1.7,0,3.7-0.3,5.5-2
	c2.2-2,2.9-5.7,2.9-8.6S56.4,4.3,54.2,2.2 M53,18.2c-1.4,1.3-3,1.7-4.3,1.7s-2.9-0.3-4.3-1.7c-1.4-1.4-2.3-4.3-2.3-7.3
	c0-3,0.9-6,2.3-7.3c1.4-1.3,3-1.7,4.3-1.7c1.3,0,2.9,0.3,4.3,1.7c1.4,1.4,2.3,4.3,2.3,7.3C55.3,13.9,54.4,16.8,53,18.2"/>
<path class="st1" d="M88.4,62.6h-0.2l-13-20h-4.5v26.7H75V49h0.3l13,20.4h4.4V42.6h-4.3L88.4,62.6L88.4,62.6z M57.3,59.7
	c0,2.3-0.5,4-1.7,5c-1.1,1.1-2.6,1.6-4.6,1.6c-2,0-3.6-0.5-4.7-1.6c-1.1-1.1-1.7-2.8-1.7-5V42.6H40v17.1c0,1.5,0.2,2.9,0.6,4.2
	c0.4,1.2,1,2.3,1.9,3.2c0.8,0.8,1.9,1.5,3.3,1.9c1.4,0.5,3,0.7,4.9,0.7c1.9,0,3.4-0.2,4.8-0.7c1.4-0.5,2.5-1.1,3.3-2
	c0.9-0.8,1.6-1.9,2-3.2c0.5-1.2,0.6-2.6,0.6-4.1V42.6h-4.4L57.3,59.7L57.3,59.7z M40,29.3V33c6.1,0,7.2,0.6,10.6,2.4
	c2.7,1.5,4.4,2.1,11,2.1v-3.8c-6.6,0-7.4-0.7-10-2.1C48.2,29.9,46.1,29.3,40,29.3 M17,62.1h-0.3L8.4,42.6H3.1v26.7h4.3V49.6h0.2
	l7.5,17h3.7l7.5-17h0.2v19.8h4.3V42.6h-5.1L17,62.1L17,62.1z M106.8,66l-0.2-0.2l14.2-20.6v-2.6h-18.8v3.3h13.1l0.1,0.2l-14.2,20.6
	v2.6h20.5V66H106.8z"/>
</svg>
