<?xml version="1.0" encoding="utf-8"?>
<!-- Generator: Adobe Illustrator 22.1.0, SVG Export Plug-In . SVG Version: 6.00 Build 0)  -->
<svg version="1.1" id="Layer_1" xmlns="http://www.w3.org/2000/svg" xmlns:xlink="http://www.w3.org/1999/xlink" x="0px" y="0px"
	 viewBox="0 0 106.4 48.5" style="enable-background:new 0 0 106.4 48.5;" xml:space="preserve">
<style type="text/css">
	.st0{fill:#292929;}
</style>
<g transform="matrix(1.25 0 0 -1.25 0 765)">
	<g>
		<path class="st0" d="M21.8,592.6c0,5.1,1.3,9.2,4.1,12.5v2.1c0,0.4,0.1,0.7,0.2,0.9c0.2,0.2,0.5,0.4,0.9,0.5v0.6h-7.2v-0.6
			c0.4-0.1,0.7-0.3,0.9-0.5s0.2-0.5,0.2-0.9v-13.3c0-1.5-0.1-2.7-0.2-3.4c-0.2-0.7-0.4-1.4-0.8-1.8c-1.1-1.3-3.1-2-5.9-2
			s-4.7,0.7-5.9,2c-0.4,0.5-0.7,1.1-0.9,1.8C7,591.2,7,592.4,7,593.9v13.4c0,0.4,0.1,0.7,0.3,0.9c0.2,0.2,0.5,0.4,0.9,0.5v0.6H0.6
			v-0.6c0.4-0.1,0.7-0.3,0.9-0.5s0.2-0.5,0.2-0.9v-15c0-1.9,0.2-3.5,0.7-4.9s1.3-2.5,2.5-3.3c2.1-1.4,5-2.1,8.9-2.1
			c4.2,0,7.4,0.8,9.3,2.4C22.1,586.8,21.8,589.6,21.8,592.6 M82.7,594.2c0.2,0.2,0.5,0.4,1,0.5v0.6H70.9c-0.4,0-0.7,0.1-0.9,0.3
			c-0.2,0.2-0.4,0.5-0.5,1h-0.6v-6.5h0.6c0.1,0.5,0.3,0.8,0.5,1s0.5,0.3,0.9,0.3h6.7v-3.8c0,0-1.2-2.4-8.8-2.7
			c-4.5-0.2-7.4,1.8-7.4,1.8c0-0.1,0-0.1,0-0.2v-5.2c0,0,2.4-1.1,7.5-1.1c4.8,0,10.2,1.4,14.8,5.3v0.5c-0.5,0.1-0.8,0.3-1,0.5
			s-0.3,0.5-0.3,0.9v5.7C82.4,593.7,82.5,594,82.7,594.2 M62.2,602.6c1.8,1.6,4.2,2.4,7,2.4c1.4,0,2.8-0.2,4.4-0.6
			c1.5-0.4,2.7-1,3.5-1.6c0.4-0.3,0.6-0.5,0.7-0.7s0.2-0.5,0.2-0.9l0.6-0.3l3.1,6.6l-0.5,0.3c-0.4-0.3-0.7-0.5-1-0.5
			c-0.4,0-1,0.2-1.9,0.5c-1.7,0.7-3.3,1.2-4.6,1.5c-1.4,0.3-2.8,0.4-4.3,0.4c-5.8,0.3-8.8-1.5-8.8-1.5l-4.4-9.5l-1.8,0.6
			c0,0,0,0.9-0.1,0.9c-0.4-0.4-0.8-2.3-0.9-4.9c0-0.6,0.1-2.1,0.1-2.1h5.8c0,0-0.1,1.3-0.1,2.1C59,598.4,60.1,600.8,62.2,602.6"/>
		<path class="st0" d="M54.2,587.4h-8.5c-0.5,0-0.9-0.1-1.2-0.4c-0.3-0.3-0.5-0.7-0.6-1.4H43v8.7h0.8c0.2-0.7,0.4-1.1,0.6-1.4
			c0.3-0.2,0.6-0.4,1.2-0.4H62v-0.8c-0.6-0.2-1-0.4-1.3-0.7s-0.4-0.7-0.4-1.3v-7.6c0-0.6,0.1-1,0.4-1.3c0.2-0.3,0.6-0.5,1.3-0.7
			v-0.6c-6.5-4-12.9-6-19-6c-5.6,0-10.1,1.4-13.6,4.2c-4.4,3.6-6.7,8.5-6.7,14.9c0,5.9,2,10.6,5.9,14.1c3.7,3.3,8.7,5,14.9,5
			c2,0,3.8-0.2,5.6-0.6c1.7-0.4,3.7-1,5.9-2c1.1-0.5,2.1-0.8,2.6-0.8c0.4,0,0.8,0.2,1.2,0.6l0.7-0.4l-4-8.8l-0.8,0.3
			c0,0.6-0.3,1.1-0.4,1.4c-0.1,0.3-0.4,0.6-0.9,0.9c-1,0.8-2.5,1.5-4.5,2.1s-3.9,0.9-5.6,0.9c-3.6,0-6.6-1.1-9-3.2
			c-2.7-2.5-4-5.7-4-9.7c0-3.9,1.3-7,3.9-9.4c2.4-2.2,5.5-3.3,9.5-3.3c1.9,0,3.8,0.2,5.6,0.7s3.4,1.1,4.8,1.9L54.2,587.4L54.2,587.4
			z"/>
	</g>
</g>
</svg>
